<svg width="14" height="20" viewBox="0 0 14 20" fill="none" xmlns="http://www.w3.org/2000/svg">
<path d="M12.075 6.93957C14.3083 8.22899 14.3083 11.4525 12.075 12.7419L1.275 18.9773C-0.958337 20.2667 -3.75 18.655 -3.75 16.0761V3.60537C-3.75 1.02654 -0.958336 -0.58523 1.275 0.704186L12.075 6.93957Z" fill="#001727"/>
<path d="M12.075 6.93957C14.3083 8.22899 14.3083 11.4525 12.075 12.7419L1.275 18.9773C-0.958337 20.2667 -3.75 18.655 -3.75 16.0761V3.60537C-3.75 1.02654 -0.958336 -0.58523 1.275 0.704186L12.075 6.93957Z" fill="#1A2E3D"/>
<path d="M12.075 6.93957C14.3083 8.22899 14.3083 11.4525 12.075 12.7419L1.275 18.9773C-0.958337 20.2667 -3.75 18.655 -3.75 16.0761V3.60537C-3.75 1.02654 -0.958336 -0.58523 1.275 0.704186L12.075 6.93957Z" stroke="white" stroke-width="0.5"/>
</svg>
