<svg width="94" height="32" viewBox="0 0 94 32" fill="none" xmlns="http://www.w3.org/2000/svg">
<path d="M14.0897 23.0832C13.6742 23.0832 13.3192 22.936 13.0249 22.6416C12.7305 22.3473 12.5833 21.9923 12.5833 21.5767V10.9998H11.75V9.74986H15.5V9.0127H20.5V9.74986H24.25V10.9998H23.4166V21.5767C23.4166 21.9977 23.2708 22.354 22.9791 22.6457C22.6875 22.9373 22.3312 23.0832 21.9102 23.0832H14.0897ZM22.1666 10.9998H13.8333V21.5767C13.8333 21.6515 13.8574 21.713 13.9054 21.7611C13.9535 21.8091 14.015 21.8332 14.0897 21.8332H21.9102C21.9743 21.8332 22.0331 21.8065 22.0865 21.753C22.1399 21.6996 22.1666 21.6408 22.1666 21.5767V10.9998ZM15.8365 20.1665H17.0865V12.6665H15.8365V20.1665ZM18.9134 20.1665H20.1634V12.6665H18.9134V20.1665Z" fill="#BC0000"/>
<path d="M41.0407 21H39.0107L36.6727 16.954H36.0847H35.4407V21H33.7047V11.242H36.8967C39.2207 11.242 40.2147 12.306 40.2147 14.056C40.2147 15.456 39.5707 16.352 38.4087 16.744L41.0407 21ZM35.4407 15.344H36.7147C37.8487 15.344 38.4647 15.036 38.4647 14.084C38.4647 13.132 37.8487 12.852 36.7147 12.852H35.4407V15.344ZM47.8502 17.458C47.8502 17.668 47.8362 17.878 47.8082 18.102H43.0762C43.1462 19.012 43.7062 19.614 44.7982 19.614C45.4142 19.614 45.9742 19.418 46.4502 18.872L47.6122 19.894C46.8562 20.734 45.9462 21.14 44.7842 21.14C42.4042 21.14 41.3962 19.432 41.3962 17.584C41.3962 15.778 42.3762 13.958 44.6722 13.958C46.8142 13.958 47.8502 15.54 47.8502 17.458ZM43.0622 16.772H46.2402C46.2122 15.89 45.5402 15.358 44.6582 15.358C43.6362 15.358 43.1602 16.086 43.0622 16.772ZM56.944 13.958C58.61 13.958 59.352 15.218 59.352 16.604V21H57.672V17.108C57.672 16.562 57.602 15.428 56.496 15.428C55.082 15.428 55.138 16.982 55.138 18.368V21H53.458V17.108C53.458 16.562 53.388 15.428 52.296 15.428C50.882 15.428 50.924 16.982 50.924 18.368V21H49.244L49.23 14.098H50.854V14.966C51.302 14.196 52.016 13.958 52.702 13.958C53.458 13.958 54.298 14.252 54.718 15.316C55.25 14.28 56.048 13.958 56.944 13.958ZM63.9802 21.14C61.8382 21.14 60.5222 19.488 60.5222 17.542C60.5222 15.582 61.8382 13.958 63.9802 13.958C66.1082 13.958 67.4382 15.582 67.4382 17.542C67.4382 19.488 66.1082 21.14 63.9802 21.14ZM63.9802 19.67C65.2542 19.67 65.7582 18.662 65.7582 17.542C65.7582 16.408 65.2542 15.428 63.9802 15.428C62.7062 15.428 62.2022 16.408 62.2022 17.542C62.2022 18.662 62.7062 19.67 63.9802 19.67ZM70.3397 21L67.5257 14.098H69.3597L71.0257 18.816L72.7197 14.098H74.5397L71.7257 21H70.3397ZM81.1276 17.458C81.1276 17.668 81.1136 17.878 81.0856 18.102H76.3536C76.4236 19.012 76.9836 19.614 78.0756 19.614C78.6916 19.614 79.2516 19.418 79.7276 18.872L80.8896 19.894C80.1336 20.734 79.2236 21.14 78.0616 21.14C75.6816 21.14 74.6736 19.432 74.6736 17.584C74.6736 15.778 75.6536 13.958 77.9496 13.958C80.0916 13.958 81.1276 15.54 81.1276 17.458ZM76.3396 16.772H79.5176C79.4896 15.89 78.8176 15.358 77.9356 15.358C76.9136 15.358 76.4376 16.086 76.3396 16.772Z" fill="#BC0000"/>
</svg>
