<svg width="81" height="130" viewBox="0 0 81 130" fill="none" xmlns="http://www.w3.org/2000/svg">
<g opacity="0.5" clip-path="url(#clip0_5374_16187)">
<path d="M47.1209 -0.152344H43.8477V97.3566H47.1209V-0.152344Z" fill="white"/>
<path d="M47.1209 -0.152344H43.8477V97.3566H47.1209V-0.152344Z" fill="white"/>
<path d="M48.9246 31.4805H42.0254V128.989H48.9246V31.4805Z" fill="white"/>
<path d="M42.0271 30.8848C41.6963 30.8848 41.4277 31.1527 41.4277 31.4835V128.992C41.4277 129.323 41.6957 129.591 42.0271 129.591H48.9269C49.2577 129.591 49.5257 129.323 49.5257 128.992V31.4841C49.5257 31.1533 49.2577 30.8854 48.9269 30.8854H42.0271V30.8848ZM42.6259 32.0829H48.3281V128.393H42.6259V32.0829Z" fill="#04212F"/>
<path d="M43.282 48.2305H36.3828V128.992H43.282V48.2305Z" fill="white"/>
<path d="M36.3859 47.6309C36.055 47.6309 35.7871 47.8994 35.7871 48.2302V128.99C35.7871 129.321 36.055 129.589 36.3859 129.589H43.2838C43.6147 129.589 43.8826 129.321 43.8826 128.99V48.2302C43.8826 47.8994 43.6147 47.6315 43.2838 47.6309H36.3859ZM36.9847 48.829H42.6845V128.391H36.9847V48.829Z" fill="#04212F"/>
<path d="M39.5203 71.3047H32.6211V128.991H39.5203V71.3047Z" fill="white"/>
<path d="M32.6222 70.7051C32.2914 70.7051 32.0234 70.973 32.0234 71.3038V128.992C32.0234 129.322 32.2914 129.59 32.6222 129.59H39.5202C39.851 129.59 40.1189 129.322 40.1189 128.992V71.3038C40.1189 70.973 39.851 70.7051 39.5202 70.7051H32.6222ZM33.2216 71.9032H38.9214V128.392H33.2216V71.9032Z" fill="#04212F"/>
<path d="M53.3191 59.7676H46.4199V128.992H53.3191V59.7676Z" fill="white"/>
<path d="M46.4191 59.167C46.0882 59.167 45.8203 59.4349 45.8203 59.7658V128.99C45.8203 129.321 46.0882 129.589 46.4191 129.589H53.317C53.6479 129.589 53.9158 129.321 53.9158 128.99V59.7658C53.9158 59.4349 53.6479 59.167 53.317 59.167H46.4191ZM47.0185 60.3645H52.7183V128.392H47.0185V60.3645Z" fill="#04212F"/>
<path d="M57.3933 95.123H50.4941V128.991H57.3933V95.123Z" fill="white"/>
<path d="M50.4933 94.5234C50.1625 94.5234 49.8945 94.7914 49.8945 95.1222V128.991C49.8945 129.322 50.1625 129.59 50.4933 129.59H57.3937C57.7245 129.59 57.9925 129.322 57.9925 128.991V95.1222C57.9925 94.7914 57.7245 94.5234 57.3937 94.5234H50.4933ZM51.0927 95.7216H56.7949V128.392H51.0927V95.7216Z" fill="#04212F"/>
<path d="M36.6941 107.778H29.7949V128.992H36.6941V107.778Z" fill="white"/>
<path d="M29.796 107.18C29.4652 107.18 29.1973 107.448 29.1973 107.778V128.991C29.1973 129.322 29.4652 129.59 29.796 129.59H36.6958C37.0267 129.59 37.2946 129.322 37.2952 128.991V107.778C37.2952 107.448 37.0267 107.18 36.6958 107.18H29.796ZM30.3948 108.378H36.097V128.392H30.3948V108.378Z" fill="#04212F"/>
<path d="M42.9721 127.567C21.9606 127.567 0.949219 128.62 0.949219 128.62C0.949219 128.62 21.9606 129.673 42.9721 129.673H44.2634C65.2518 129.673 86.2402 128.62 86.2402 128.62C86.2402 128.62 65.2518 127.567 44.2634 127.567H42.9721Z" fill="white"/>
</g>
<defs>
<clipPath id="clip0_5374_16187">
<rect width="79.1005" height="130" fill="white" transform="translate(0.949219)"/>
</clipPath>
</defs>
</svg>
