<svg width="20" height="20" viewBox="0 0 20 20" fill="none" xmlns="http://www.w3.org/2000/svg">
<path d="M10.0007 10.0003C10.459 10.0003 10.8513 9.83713 11.1777 9.51074C11.5041 9.18435 11.6673 8.79199 11.6673 8.33366C11.6673 7.87533 11.5041 7.48296 11.1777 7.15658C10.8513 6.83019 10.459 6.66699 10.0007 6.66699C9.54232 6.66699 9.14996 6.83019 8.82357 7.15658C8.49718 7.48296 8.33398 7.87533 8.33398 8.33366C8.33398 8.79199 8.49718 9.18435 8.82357 9.51074C9.14996 9.83713 9.54232 10.0003 10.0007 10.0003ZM10.0007 16.1253C11.6951 14.5698 12.952 13.1566 13.7715 11.8857C14.5909 10.6149 15.0007 9.48644 15.0007 8.50033C15.0007 6.98644 14.518 5.74685 13.5527 4.78158C12.5875 3.8163 11.4034 3.33366 10.0007 3.33366C8.59787 3.33366 7.41385 3.8163 6.44857 4.78158C5.48329 5.74685 5.00065 6.98644 5.00065 8.50033C5.00065 9.48644 5.41037 10.6149 6.22982 11.8857C7.04926 13.1566 8.30621 14.5698 10.0007 16.1253ZM10.0007 18.3337C7.76454 16.4309 6.0944 14.6635 4.99023 13.0316C3.88607 11.3996 3.33398 9.88922 3.33398 8.50033C3.33398 6.41699 4.00412 4.75727 5.3444 3.52116C6.68468 2.28505 8.23676 1.66699 10.0007 1.66699C11.7645 1.66699 13.3166 2.28505 14.6569 3.52116C15.9972 4.75727 16.6673 6.41699 16.6673 8.50033C16.6673 9.88922 16.1152 11.3996 15.0111 13.0316C13.9069 14.6635 12.2368 16.4309 10.0007 18.3337Z" fill="#001727"/>
</svg>
