<svg width="22" height="28" viewBox="0 0 22 28" fill="none" xmlns="http://www.w3.org/2000/svg">
<path d="M11.0007 14.0003C11.734 14.0003 12.3618 13.7392 12.884 13.217C13.4062 12.6948 13.6673 12.067 13.6673 11.3337C13.6673 10.6003 13.4062 9.97255 12.884 9.45033C12.3618 8.9281 11.734 8.66699 11.0007 8.66699C10.2673 8.66699 9.63954 8.9281 9.11732 9.45033C8.59509 9.97255 8.33398 10.6003 8.33398 11.3337C8.33398 12.067 8.59509 12.6948 9.11732 13.217C9.63954 13.7392 10.2673 14.0003 11.0007 14.0003ZM11.0007 23.8003C13.7118 21.3114 15.7229 19.0503 17.034 17.017C18.3451 14.9837 19.0007 13.1781 19.0007 11.6003C19.0007 9.1781 18.2284 7.19477 16.684 5.65033C15.1395 4.10588 13.2451 3.33366 11.0007 3.33366C8.75621 3.33366 6.86176 4.10588 5.31732 5.65033C3.77287 7.19477 3.00065 9.1781 3.00065 11.6003C3.00065 13.1781 3.65621 14.9837 4.96732 17.017C6.27843 19.0503 8.28954 21.3114 11.0007 23.8003ZM11.0007 27.3337C7.42287 24.2892 4.75065 21.4614 2.98398 18.8503C1.21732 16.2392 0.333984 13.8225 0.333984 11.6003C0.333984 8.26699 1.40621 5.61144 3.55065 3.63366C5.6951 1.65588 8.17843 0.666992 11.0007 0.666992C13.8229 0.666992 16.3062 1.65588 18.4506 3.63366C20.5951 5.61144 21.6673 8.26699 21.6673 11.6003C21.6673 13.8225 20.784 16.2392 19.0173 18.8503C17.2507 21.4614 14.5784 24.2892 11.0007 27.3337Z" fill="#3EBDAB"/>
</svg>
