<svg width="14" height="14" viewBox="0 0 14 14" fill="none" xmlns="http://www.w3.org/2000/svg">
<path d="M12.8895 13.6663C11.3463 13.6663 9.82164 13.3299 8.31547 12.6571C6.80929 11.9842 5.43892 11.0305 4.20435 9.79597C2.96979 8.5614 2.01608 7.19103 1.34324 5.68486C0.670404 4.17869 0.333984 2.654 0.333984 1.11079C0.333984 0.888563 0.408058 0.703378 0.556207 0.55523C0.704355 0.407082 0.88954 0.333008 1.11176 0.333008H4.11176C4.2846 0.333008 4.43892 0.39165 4.57473 0.508934C4.71053 0.626218 4.79077 0.765107 4.81547 0.9256L5.29695 3.51819C5.32164 3.71572 5.31547 3.88239 5.27843 4.01819C5.24139 4.154 5.17349 4.27128 5.07473 4.37004L3.27843 6.18486C3.52534 6.64165 3.81855 7.08301 4.15806 7.50893C4.49756 7.93486 4.87102 8.34535 5.27843 8.74042C5.66114 9.12313 6.06238 9.47807 6.48213 9.80523C6.90189 10.1324 7.34633 10.4318 7.81547 10.7034L9.55621 8.96264C9.66732 8.85153 9.81238 8.76819 9.99139 8.71264C10.1704 8.65708 10.3463 8.64165 10.5192 8.66634L13.0747 9.18486C13.2476 9.23424 13.3895 9.32375 13.5007 9.45338C13.6118 9.58301 13.6673 9.72807 13.6673 9.88856V12.8886C13.6673 13.1108 13.5932 13.296 13.4451 13.4441C13.2969 13.5923 13.1118 13.6663 12.8895 13.6663Z" fill="white"/>
</svg>
