<svg width="36" height="118" viewBox="0 0 36 118" fill="none" xmlns="http://www.w3.org/2000/svg">
<g opacity="0.5" filter="url(#filter0_d_5374_12185)">
<path d="M2 1V112H30V1H2ZM6.24174 108.923H5.10931V52.4441H6.24174V108.923ZM9.0728 108.923H8.2251V52.4441H9.0728V108.923ZM11.9006 108.923H11.0529V52.4441H11.9006V108.923ZM14.7284 108.923H13.8807V52.4441H14.7284V108.923ZM17.8378 108.923H16.7053V52.4441H17.8378V108.923ZM20.6656 108.923H19.5332V52.4441H20.6656V108.923ZM23.4966 108.923H22.6489V52.4441H23.4966V108.923ZM26.3245 108.923H25.4768V52.4441H26.3245V108.923ZM16.1812 47.822C10.3735 47.822 5.66582 27.84 5.66582 4.3554H26.6933C26.6933 27.8432 21.9857 47.822 16.178 47.822H16.1812Z" fill="white"/>
</g>
<defs>
<filter id="filter0_d_5374_12185" x="0.981704" y="0.490852" width="34.1098" height="117.11" filterUnits="userSpaceOnUse" color-interpolation-filters="sRGB">
<feFlood flood-opacity="0" result="BackgroundImageFix"/>
<feColorMatrix in="SourceAlpha" type="matrix" values="0 0 0 0 0 0 0 0 0 0 0 0 0 0 0 0 0 0 127 0" result="hardAlpha"/>
<feOffset dx="2.03659" dy="2.54574"/>
<feGaussianBlur stdDeviation="1.52744"/>
<feColorMatrix type="matrix" values="0 0 0 0 0 0 0 0 0 0 0 0 0 0 0 0 0 0 0.22 0"/>
<feBlend mode="normal" in2="BackgroundImageFix" result="effect1_dropShadow_5374_12185"/>
<feBlend mode="normal" in="SourceGraphic" in2="effect1_dropShadow_5374_12185" result="shape"/>
</filter>
</defs>
</svg>
