<svg width="487" height="454" viewBox="0 0 487 454" fill="none" xmlns="http://www.w3.org/2000/svg">
<circle cx="130.991" cy="323.878" r="129.41" stroke="#3EBDAB" stroke-width="1.36468"/>
<circle cx="243.842" cy="130.093" r="129.41" stroke="#001727" stroke-width="1.36468"/>
<circle cx="243.842" cy="130.093" r="129.41" stroke="#3EBDAB" stroke-width="1.36468"/>
<path d="M465.627 217.08L469.288 210.104L461.415 210.422L465.627 217.08ZM459.841 187.99L460.471 187.729L459.841 187.99ZM443.362 163.328L442.88 163.81V163.81L443.362 163.328ZM418.7 146.849L418.439 147.479L418.7 146.849ZM466.059 210.891C465.416 202.939 463.534 195.123 460.471 187.729L459.21 188.251C462.219 195.513 464.067 203.19 464.699 211.001L466.059 210.891ZM460.471 187.729C456.617 178.423 450.967 169.967 443.845 162.845L442.88 163.81C449.875 170.806 455.424 179.111 459.21 188.251L460.471 187.729ZM443.845 162.845C436.722 155.723 428.267 150.073 418.961 146.219L418.439 147.479C427.579 151.265 435.884 156.815 442.88 163.81L443.845 162.845ZM418.961 146.219C409.656 142.364 399.682 140.38 389.609 140.38V141.745C399.503 141.745 409.299 143.693 418.439 147.479L418.961 146.219Z" fill="#001727"/>
<path d="M22.0563 217.084L18.3955 210.107L26.2681 210.426L22.0563 217.084ZM27.8428 187.994L27.2124 187.732L27.8428 187.994ZM44.3214 163.332L44.8039 163.814V163.814L44.3214 163.332ZM68.9834 146.853L69.2445 147.483L68.9834 146.853ZM21.6241 210.895C22.2679 202.942 24.1497 195.127 27.2124 187.732L28.4732 188.255C25.4649 195.517 23.6167 203.194 22.9843 211.005L21.6241 210.895ZM27.2124 187.732C31.0669 178.427 36.7167 169.971 43.8389 162.849L44.8039 163.814C37.8083 170.81 32.2592 179.115 28.4732 188.255L27.2124 187.732ZM43.8389 162.849C50.9612 155.727 59.4166 150.077 68.7223 146.223L69.2445 147.483C60.1044 151.269 51.7995 156.818 44.8039 163.814L43.8389 162.849ZM68.7223 146.223C78.028 142.368 88.0018 140.384 98.0742 140.384V141.749C88.181 141.749 78.3847 143.697 69.2445 147.483L68.7223 146.223Z" fill="#001727"/>
<circle cx="356.694" cy="323.663" r="129.41" stroke="#3EBDAB" stroke-width="1.36468"/>
<path d="M57.2464 294.031V281.485H60.8824C65.0404 281.485 67.4164 283.789 67.4164 287.857C67.4164 291.853 65.1124 294.031 60.8644 294.031H57.2464ZM59.4964 291.961H60.6484C63.8164 291.961 65.1484 290.719 65.1484 287.767C65.1484 284.869 63.8164 283.555 60.8464 283.555H59.4964V291.961ZM76.9805 289.477C76.9805 289.747 76.9625 290.017 76.9265 290.305H70.8425C70.9325 291.475 71.6525 292.249 73.0565 292.249C73.8485 292.249 74.5685 291.997 75.1805 291.295L76.6745 292.609C75.7025 293.689 74.5325 294.211 73.0385 294.211C69.9785 294.211 68.6825 292.015 68.6825 289.639C68.6825 287.317 69.9425 284.977 72.8945 284.977C75.6485 284.977 76.9805 287.011 76.9805 289.477ZM70.8245 288.595H74.9105C74.8745 287.461 74.0105 286.777 72.8765 286.777C71.5625 286.777 70.9505 287.713 70.8245 288.595ZM80.7525 294.211C79.5465 294.211 78.6645 293.491 78.6645 291.907V281.485H80.8245V291.763C80.8245 292.159 81.0585 292.321 81.4545 292.321C81.6525 292.321 81.8865 292.285 82.1385 292.213V293.941C81.6525 294.121 81.1665 294.211 80.7525 294.211ZM83.7102 283.483V281.485H85.9782V283.483H83.7102ZM83.7642 294.031V285.157H85.9242V294.031H83.7642ZM90.708 294.031L87.09 285.157H89.448L91.59 291.223L93.768 285.157H96.108L92.49 294.031H90.708ZM104.578 289.477C104.578 289.747 104.56 290.017 104.524 290.305H98.4401C98.5301 291.475 99.2501 292.249 100.654 292.249C101.446 292.249 102.166 291.997 102.778 291.295L104.272 292.609C103.3 293.689 102.13 294.211 100.636 294.211C97.5761 294.211 96.2801 292.015 96.2801 289.639C96.2801 287.317 97.5401 284.977 100.492 284.977C103.246 284.977 104.578 287.011 104.578 289.477ZM98.4221 288.595H102.508C102.472 287.461 101.608 286.777 100.474 286.777C99.1601 286.777 98.5481 287.713 98.4221 288.595ZM110.906 284.977C111.5 284.977 112.022 285.121 112.598 285.481L111.554 287.389C111.248 287.191 110.906 287.083 110.474 287.083C109.16 287.083 108.512 287.893 108.512 289.567V294.031H106.352V285.157H108.53V286.669C108.908 285.571 109.898 284.977 110.906 284.977ZM114.626 297.703L116.21 293.797L112.736 285.157H115.112L117.362 291.313L119.63 285.157H122.006L116.966 297.703H114.626ZM137.325 293.347L135.795 294.697L134.139 292.807C133.131 293.689 131.817 294.229 130.359 294.229C128.055 294.229 126.237 293.113 126.237 291.097C126.237 289.189 127.659 288.109 129.153 287.245C128.613 286.687 127.659 285.625 127.659 284.293C127.659 282.457 129.423 281.341 131.133 281.341C132.951 281.341 134.463 282.619 134.463 284.275C134.463 285.787 133.437 286.777 132.213 287.605L133.977 289.585C134.175 289.045 134.283 288.451 134.283 287.857L136.389 288.073C136.335 289.225 135.993 290.305 135.453 291.241L137.325 293.347ZM129.747 284.329C129.747 284.977 130.413 285.823 130.809 286.291C131.745 285.715 132.465 285.121 132.465 284.311C132.465 283.627 132.015 283.033 131.151 283.033C130.413 283.033 129.747 283.483 129.747 284.329ZM130.305 292.393C131.331 292.393 132.213 291.997 132.879 291.349L130.503 288.649C129.333 289.369 128.343 290.089 128.343 291.133C128.343 291.979 129.135 292.393 130.305 292.393ZM146.214 294.211C143.316 294.211 141.912 291.961 141.912 289.621C141.912 287.281 143.298 284.977 146.196 284.977C147.96 284.977 149.346 285.823 150.03 287.587L147.978 288.397C147.744 287.461 147.078 286.867 146.196 286.867C144.702 286.867 144.126 288.217 144.126 289.621C144.126 291.025 144.684 292.321 146.196 292.321C147.06 292.321 147.744 291.745 147.978 290.827L149.94 291.583C149.346 293.239 147.978 294.211 146.214 294.211ZM156.441 284.977C158.439 284.977 159.573 286.183 159.573 288.307V294.031H157.413V288.847C157.413 287.497 156.891 286.867 155.775 286.867C154.353 286.867 153.759 287.929 153.759 290.485V294.031H151.599V281.485H153.759V286.165C154.353 285.391 155.271 284.977 156.441 284.977ZM165.337 284.977C167.677 284.977 169.135 286.291 169.135 288.433V294.031H167.155L166.975 292.879C166.453 293.707 165.445 294.211 164.275 294.211C162.403 294.211 161.071 293.005 161.071 291.313C161.071 290.269 161.539 289.477 162.403 289.081C162.997 288.811 163.753 288.685 164.761 288.685H166.975V288.433C166.975 287.461 166.327 286.867 165.301 286.867C164.401 286.867 163.555 287.335 162.907 288.199L161.341 286.885C162.403 285.607 163.717 284.977 165.337 284.977ZM164.617 292.375C165.913 292.375 166.975 291.457 166.975 290.305H165.049C164.311 290.305 163.879 290.395 163.591 290.611C163.357 290.773 163.231 291.025 163.231 291.349C163.231 291.979 163.753 292.375 164.617 292.375ZM176.251 284.977C178.249 284.977 179.383 286.201 179.383 288.307V294.031H177.223V288.847C177.223 288.235 177.223 286.867 175.585 286.867C173.569 286.867 173.569 288.901 173.569 290.485V294.031H171.409V285.157H173.569V286.183C174.199 285.337 175.171 284.977 176.251 284.977ZM185.112 292.681C186.912 292.915 189.234 293.113 189.234 295.237C189.234 297.091 187.542 297.883 185.148 297.883C182.502 297.883 180.99 296.911 180.99 295.075C180.99 294.859 181.008 294.769 181.026 294.679L182.304 293.869C181.674 293.527 181.242 292.969 181.242 292.051C181.242 291.277 181.548 290.719 182.07 290.269C181.62 289.711 181.35 289.009 181.35 288.235C181.35 286.309 183.006 284.977 184.986 284.977C185.76 284.977 186.48 285.175 187.074 285.535L188.424 284.383L189.558 285.751L188.28 286.795C188.514 287.245 188.658 287.767 188.658 288.343C188.658 290.323 187.002 291.583 185.058 291.583C184.446 291.583 183.87 291.457 183.348 291.241C183.186 291.349 183.096 291.493 183.096 291.709C183.096 292.357 183.996 292.537 185.112 292.681ZM185.022 286.777C184.104 286.777 183.51 287.389 183.51 288.289C183.51 289.135 184.014 289.819 185.022 289.819C186.012 289.819 186.498 289.153 186.498 288.289C186.498 287.371 185.94 286.777 185.022 286.777ZM185.238 296.263C186.156 296.263 187.074 296.047 187.074 295.435C187.074 294.751 185.94 294.679 184.662 294.499L183.924 294.391L183.15 295.129C183.132 295.183 183.132 295.237 183.132 295.273C183.132 296.029 184.23 296.263 185.238 296.263ZM197.971 289.477C197.971 289.747 197.953 290.017 197.917 290.305H191.833C191.923 291.475 192.643 292.249 194.047 292.249C194.839 292.249 195.559 291.997 196.171 291.295L197.665 292.609C196.693 293.689 195.523 294.211 194.029 294.211C190.969 294.211 189.673 292.015 189.673 289.639C189.673 287.317 190.933 284.977 193.885 284.977C196.639 284.977 197.971 287.011 197.971 289.477ZM191.815 288.595H195.901C195.865 287.461 195.001 286.777 193.867 286.777C192.553 286.777 191.941 287.713 191.815 288.595ZM88.2305 311.477C88.2305 311.747 88.2125 312.017 88.1765 312.305H82.0925C82.1825 313.475 82.9025 314.249 84.3065 314.249C85.0985 314.249 85.8185 313.997 86.4305 313.295L87.9245 314.609C86.9525 315.689 85.7825 316.211 84.2885 316.211C81.2285 316.211 79.9325 314.015 79.9325 311.639C79.9325 309.317 81.1925 306.977 84.1445 306.977C86.8985 306.977 88.2305 309.011 88.2305 311.477ZM82.0745 310.595H86.1605C86.1245 309.461 85.2605 308.777 84.1265 308.777C82.8125 308.777 82.2005 309.713 82.0745 310.595ZM94.8465 306.977C96.8445 306.977 97.9785 308.201 97.9785 310.307V316.031H95.8185V310.847C95.8185 310.235 95.8185 308.867 94.1805 308.867C92.1645 308.867 92.1645 310.901 92.1645 312.485V316.031H90.0045V307.157H92.1645V308.183C92.7945 307.337 93.7665 306.977 94.8465 306.977ZM103.743 306.977C106.083 306.977 107.541 308.291 107.541 310.433V316.031H105.561L105.381 314.879C104.859 315.707 103.851 316.211 102.681 316.211C100.809 316.211 99.4772 315.005 99.4772 313.313C99.4772 312.269 99.9452 311.477 100.809 311.081C101.403 310.811 102.159 310.685 103.167 310.685H105.381V310.433C105.381 309.461 104.733 308.867 103.707 308.867C102.807 308.867 101.961 309.335 101.313 310.199L99.7472 308.885C100.809 307.607 102.123 306.977 103.743 306.977ZM103.023 314.375C104.319 314.375 105.381 313.457 105.381 312.305H103.455C102.717 312.305 102.285 312.395 101.997 312.611C101.763 312.773 101.637 313.025 101.637 313.349C101.637 313.979 102.159 314.375 103.023 314.375ZM114.549 306.977C116.727 306.977 118.293 308.687 118.293 311.585C118.293 314.249 116.961 316.211 114.549 316.211C113.595 316.211 112.605 315.905 111.993 315.149V316.031H109.833V303.485H111.993V308.057C112.551 307.391 113.541 306.977 114.549 306.977ZM114.027 314.213C115.467 314.213 116.133 313.241 116.133 311.603C116.133 309.947 115.449 308.939 114.009 308.939C112.461 308.939 111.795 310.127 111.795 311.603C111.795 313.079 112.461 314.213 114.027 314.213ZM122.131 316.211C120.925 316.211 120.043 315.491 120.043 313.907V303.485H122.203V313.763C122.203 314.159 122.437 314.321 122.833 314.321C123.031 314.321 123.265 314.285 123.517 314.213V315.941C123.031 316.121 122.545 316.211 122.131 316.211ZM132.703 311.477C132.703 311.747 132.685 312.017 132.649 312.305H126.565C126.655 313.475 127.375 314.249 128.779 314.249C129.571 314.249 130.291 313.997 130.903 313.295L132.397 314.609C131.425 315.689 130.255 316.211 128.761 316.211C125.701 316.211 124.405 314.015 124.405 311.639C124.405 309.317 125.665 306.977 128.617 306.977C131.371 306.977 132.703 309.011 132.703 311.477ZM126.547 310.595H130.633C130.597 309.461 129.733 308.777 128.599 308.777C127.285 308.777 126.673 309.713 126.547 310.595ZM144.395 306.977C146.537 306.977 147.491 308.597 147.491 310.379V316.031H145.331V311.027C145.331 310.325 145.241 308.867 143.819 308.867C142.001 308.867 142.073 310.865 142.073 312.647V316.031H139.913V311.027C139.913 310.325 139.823 308.867 138.419 308.867C136.601 308.867 136.655 310.865 136.655 312.647V316.031H134.495L134.477 307.157H136.565V308.273C137.141 307.283 138.059 306.977 138.941 306.977C139.913 306.977 140.993 307.355 141.533 308.723C142.217 307.391 143.243 306.977 144.395 306.977ZM157.348 311.477C157.348 311.747 157.33 312.017 157.294 312.305H151.21C151.3 313.475 152.02 314.249 153.424 314.249C154.216 314.249 154.936 313.997 155.548 313.295L157.042 314.609C156.07 315.689 154.9 316.211 153.406 316.211C150.346 316.211 149.05 314.015 149.05 311.639C149.05 309.317 150.31 306.977 153.262 306.977C156.016 306.977 157.348 309.011 157.348 311.477ZM151.192 310.595H155.278C155.242 309.461 154.378 308.777 153.244 308.777C151.93 308.777 151.318 309.713 151.192 310.595ZM163.964 306.977C165.962 306.977 167.096 308.201 167.096 310.307V316.031H164.936V310.847C164.936 310.235 164.936 308.867 163.298 308.867C161.282 308.867 161.282 310.901 161.282 312.485V316.031H159.122V307.157H161.282V308.183C161.912 307.337 162.884 306.977 163.964 306.977ZM174.156 308.867H171.942V313.385C171.942 314.087 172.374 314.411 173.076 314.411C173.382 314.411 173.76 314.339 174.156 314.213V315.941C173.616 316.121 173.076 316.211 172.536 316.211C171.042 316.211 169.782 315.437 169.782 313.547V308.867H168.342V307.157H169.782V305.447L171.942 303.845V307.157H174.156V308.867Z" fill="#001727"/>
<path d="M90.619 337.992V337.18H93.909V342.22H93.111L92.971 340.694C92.439 341.772 91.249 342.36 89.751 342.36C86.909 342.36 85.383 340.232 85.383 337.32C85.383 334.422 86.895 332.322 89.891 332.322C91.949 332.322 93.265 333.316 93.909 334.996L92.985 335.346C92.495 334.016 91.515 333.274 89.891 333.274C87.539 333.274 86.377 334.87 86.377 337.278C86.377 339.602 87.399 341.408 89.821 341.408C91.501 341.408 92.971 340.526 92.971 338.3V337.992H90.619ZM100.723 335.318H101.689V342.22H100.723V341.226C100.233 341.968 99.3514 342.332 98.4414 342.332C96.8734 342.332 96.1874 341.254 96.1874 339.546V335.318H97.1534V339.308C97.1534 340.428 97.3494 341.478 98.6654 341.478C100.037 341.478 100.723 340.288 100.723 338.496V335.318ZM106.638 335.206C108.374 335.206 109.382 336.2 109.382 337.922V342.22H108.5L108.444 341.156C107.898 341.926 107.058 342.332 105.966 342.332C104.468 342.332 103.586 341.548 103.586 340.218C103.586 339.518 103.866 338.986 104.37 338.678C104.902 338.37 105.644 338.244 107.002 338.244H108.416V337.922C108.416 336.718 107.786 336.06 106.624 336.06C105.756 336.06 105.084 336.438 104.524 337.208L103.824 336.62C104.566 335.654 105.462 335.206 106.638 335.206ZM106.246 341.534C107.576 341.534 108.416 340.596 108.416 339.126V339.028H107.086C105.812 339.028 105.266 339.112 104.93 339.378C104.678 339.574 104.552 339.882 104.552 340.274C104.552 341.044 105.21 341.534 106.246 341.534ZM114.746 335.206C115.166 335.206 115.558 335.29 115.936 335.5L115.46 336.284C115.138 336.144 114.844 336.074 114.55 336.074C113.486 336.074 112.702 336.872 112.702 338.37V342.22H111.736V335.318H112.702V336.354C113.206 335.444 114.046 335.206 114.746 335.206ZM119.763 335.206C121.499 335.206 122.507 336.2 122.507 337.922V342.22H121.625L121.569 341.156C121.023 341.926 120.183 342.332 119.091 342.332C117.593 342.332 116.711 341.548 116.711 340.218C116.711 339.518 116.991 338.986 117.495 338.678C118.027 338.37 118.769 338.244 120.127 338.244H121.541V337.922C121.541 336.718 120.911 336.06 119.749 336.06C118.881 336.06 118.209 336.438 117.649 337.208L116.949 336.62C117.691 335.654 118.587 335.206 119.763 335.206ZM119.371 341.534C120.701 341.534 121.541 340.596 121.541 339.126V339.028H120.211C118.937 339.028 118.391 339.112 118.055 339.378C117.803 339.574 117.677 339.882 117.677 340.274C117.677 341.044 118.335 341.534 119.371 341.534ZM128.109 335.206C129.593 335.206 130.363 336.158 130.363 337.992V342.22H129.397V338.23C129.397 336.746 128.921 336.06 127.885 336.06C126.583 336.06 125.827 337.18 125.827 339.126V342.22H124.861V335.318H125.827V336.326C126.275 335.626 127.115 335.206 128.109 335.206ZM135.606 341.296L135.62 342.15C135.256 342.262 134.892 342.332 134.57 342.332C133.646 342.332 132.974 341.814 132.974 340.596V336.13H131.826V335.318H132.974V333.526L133.94 332.798V335.318H135.606V336.13H133.94V340.47C133.94 341.142 134.248 341.45 134.794 341.45C135.032 341.45 135.298 341.394 135.606 341.296ZM142.887 338.426C142.887 338.622 142.873 338.86 142.845 339.028H137.791C137.819 340.54 138.659 341.45 140.017 341.45C140.773 341.45 141.375 341.254 142.005 340.582L142.677 341.17C141.865 342.024 141.067 342.332 140.003 342.332C137.903 342.332 136.825 340.764 136.825 338.804C136.825 336.858 137.889 335.206 139.891 335.206C142.005 335.206 142.887 336.858 142.887 338.426ZM139.891 336.018C138.645 336.018 137.875 336.998 137.791 338.216H141.963C141.963 338.188 141.949 338.118 141.949 337.992C141.879 336.872 141.165 336.018 139.891 336.018ZM150.338 338.426C150.338 338.622 150.324 338.86 150.296 339.028H145.242C145.27 340.54 146.11 341.45 147.468 341.45C148.224 341.45 148.826 341.254 149.456 340.582L150.128 341.17C149.316 342.024 148.518 342.332 147.454 342.332C145.354 342.332 144.276 340.764 144.276 338.804C144.276 336.858 145.34 335.206 147.342 335.206C149.456 335.206 150.338 336.858 150.338 338.426ZM147.342 336.018C146.096 336.018 145.326 336.998 145.242 338.216H149.414C149.414 338.188 149.4 338.118 149.4 337.992C149.33 336.872 148.616 336.018 147.342 336.018ZM152.203 333.89V332.462H153.323V333.89H152.203ZM152.287 342.22V335.318H153.253V342.22H152.287ZM159.049 335.206C160.533 335.206 161.303 336.158 161.303 337.992V342.22H160.337V338.23C160.337 336.746 159.861 336.06 158.825 336.06C157.523 336.06 156.767 337.18 156.767 339.126V342.22H155.801V335.318H156.767V336.326C157.215 335.626 158.055 335.206 159.049 335.206ZM166.069 341.38C167.441 341.59 169.065 341.786 169.065 343.284C169.065 344.586 167.847 345.188 166.111 345.188C164.193 345.188 163.031 344.432 163.031 343.06C163.031 342.92 163.045 342.836 163.059 342.752L164.179 341.8C163.647 341.562 163.283 341.17 163.283 340.484C163.283 339.924 163.535 339.504 164.025 339.168C163.661 338.748 163.437 338.216 163.437 337.6C163.437 336.2 164.585 335.206 166.069 335.206C166.741 335.206 167.343 335.416 167.791 335.766L168.743 334.94L169.247 335.57L168.309 336.354C168.547 336.732 168.687 337.166 168.687 337.656C168.687 339.07 167.539 340.008 166.083 340.008C165.551 340.008 165.061 339.882 164.655 339.658C164.375 339.812 164.207 340.064 164.207 340.358C164.207 341.058 165.075 341.226 166.069 341.38ZM166.083 336.018C165.103 336.018 164.389 336.676 164.389 337.628C164.389 338.524 165.033 339.21 166.069 339.21C167.105 339.21 167.721 338.538 167.721 337.628C167.721 336.676 167.077 336.018 166.083 336.018ZM166.153 344.376C167.371 344.376 168.099 344.04 168.099 343.368C168.099 342.528 167.007 342.402 165.859 342.22C165.551 342.178 165.229 342.122 164.935 342.052L163.997 342.962C163.983 343.032 163.983 343.06 163.983 343.088C163.983 344.068 164.977 344.376 166.153 344.376ZM83.1875 359.332C81.1855 359.332 80.0655 357.708 80.0655 355.79C80.0655 353.97 81.0875 352.206 83.1735 352.206C84.4055 352.206 85.4275 352.822 85.9735 354.11L85.0495 354.474C84.7275 353.592 84.0415 353.06 83.1735 353.06C81.7035 353.06 81.0455 354.376 81.0455 355.79C81.0455 357.204 81.7035 358.478 83.1875 358.478C84.0555 358.478 84.7415 357.96 85.0075 357.078L85.9035 357.414C85.4415 358.674 84.4335 359.332 83.1875 359.332ZM90.0746 352.206C91.8106 352.206 92.8186 353.2 92.8186 354.922V359.22H91.9366L91.8806 358.156C91.3346 358.926 90.4946 359.332 89.4026 359.332C87.9046 359.332 87.0226 358.548 87.0226 357.218C87.0226 356.518 87.3026 355.986 87.8066 355.678C88.3386 355.37 89.0806 355.244 90.4386 355.244H91.8526V354.922C91.8526 353.718 91.2226 353.06 90.0606 353.06C89.1926 353.06 88.5206 353.438 87.9606 354.208L87.2606 353.62C88.0026 352.654 88.8986 352.206 90.0746 352.206ZM89.6826 358.534C91.0126 358.534 91.8526 357.596 91.8526 356.126V356.028H90.5226C89.2486 356.028 88.7026 356.112 88.3666 356.378C88.1146 356.574 87.9886 356.882 87.9886 357.274C87.9886 358.044 88.6466 358.534 89.6826 358.534ZM98.4208 352.192C100.339 352.192 101.487 353.606 101.487 355.762C101.487 357.82 100.437 359.332 98.4208 359.332C97.4128 359.332 96.6428 358.94 96.1388 358.296V362.076H95.1728V352.318H96.1388V353.242C96.6568 352.57 97.4408 352.192 98.4208 352.192ZM98.2808 358.478C99.7508 358.478 100.521 357.33 100.521 355.762C100.521 354.124 99.6808 353.046 98.2808 353.046C96.8948 353.046 96.0548 354.124 96.0548 355.762C96.0548 357.33 96.8248 358.478 98.2808 358.478ZM105.879 352.206C107.615 352.206 108.623 353.2 108.623 354.922V359.22H107.741L107.685 358.156C107.139 358.926 106.299 359.332 105.207 359.332C103.709 359.332 102.827 358.548 102.827 357.218C102.827 356.518 103.107 355.986 103.611 355.678C104.143 355.37 104.885 355.244 106.243 355.244H107.657V354.922C107.657 353.718 107.027 353.06 105.865 353.06C104.997 353.06 104.325 353.438 103.765 354.208L103.065 353.62C103.807 352.654 104.703 352.206 105.879 352.206ZM105.487 358.534C106.817 358.534 107.657 357.596 107.657 356.126V356.028H106.327C105.053 356.028 104.507 356.112 104.171 356.378C103.919 356.574 103.793 356.882 103.793 357.274C103.793 358.044 104.451 358.534 105.487 358.534ZM114.225 352.192C116.143 352.192 117.291 353.606 117.291 355.762C117.291 357.82 116.241 359.332 114.225 359.332C113.217 359.332 112.447 358.94 111.943 358.296V359.22H110.977V349.462H111.943V353.242C112.461 352.57 113.245 352.192 114.225 352.192ZM114.085 358.478C115.555 358.478 116.325 357.33 116.325 355.762C116.325 354.124 115.485 353.046 114.085 353.046C112.699 353.046 111.859 354.124 111.859 355.762C111.859 357.33 112.629 358.478 114.085 358.478ZM119.206 350.89V349.462H120.326V350.89H119.206ZM119.29 359.22V352.318H120.256V359.22H119.29ZM124.064 359.332C123.266 359.332 122.748 358.8 122.748 357.722V349.462H123.714V357.666C123.714 358.142 123.882 358.45 124.344 358.45C124.554 358.45 124.792 358.394 125.002 358.324L125.016 359.15C124.722 359.248 124.372 359.332 124.064 359.332ZM126.493 350.89V349.462H127.613V350.89H126.493ZM126.577 359.22V352.318H127.543V359.22H126.577ZM132.947 358.296L132.961 359.15C132.597 359.262 132.233 359.332 131.911 359.332C130.987 359.332 130.315 358.814 130.315 357.596V353.13H129.167V352.318H130.315V350.526L131.281 349.798V352.318H132.947V353.13H131.281V357.47C131.281 358.142 131.589 358.45 132.135 358.45C132.373 358.45 132.639 358.394 132.947 358.296ZM134.71 350.89V349.462H135.83V350.89H134.71ZM134.794 359.22V352.318H135.76V359.22H134.794ZM143.81 355.426C143.81 355.622 143.796 355.86 143.768 356.028H138.714C138.742 357.54 139.582 358.45 140.94 358.45C141.696 358.45 142.298 358.254 142.928 357.582L143.6 358.17C142.788 359.024 141.99 359.332 140.926 359.332C138.826 359.332 137.748 357.764 137.748 355.804C137.748 353.858 138.812 352.206 140.814 352.206C142.928 352.206 143.81 353.858 143.81 355.426ZM140.814 353.018C139.568 353.018 138.798 353.998 138.714 355.216H142.886C142.886 355.188 142.872 355.118 142.872 354.992C142.802 353.872 142.088 353.018 140.814 353.018ZM147.845 359.332C146.487 359.332 145.381 358.632 145.017 357.526L145.829 357.162C146.081 357.876 146.753 358.478 147.831 358.478C148.769 358.478 149.371 358.016 149.371 357.288C149.371 355.454 145.395 356.602 145.395 354.152C145.395 352.948 146.375 352.206 147.761 352.206C148.867 352.206 149.763 352.668 150.239 353.648L149.469 354.068C149.133 353.452 148.587 353.06 147.733 353.06C146.879 353.06 146.333 353.41 146.333 354.012C146.333 355.65 150.323 354.614 150.323 357.232C150.323 358.632 149.175 359.332 147.845 359.332ZM158.502 352.206C160.238 352.206 161.246 353.2 161.246 354.922V359.22H160.364L160.308 358.156C159.762 358.926 158.922 359.332 157.83 359.332C156.332 359.332 155.45 358.548 155.45 357.218C155.45 356.518 155.73 355.986 156.234 355.678C156.766 355.37 157.508 355.244 158.866 355.244H160.28V354.922C160.28 353.718 159.65 353.06 158.488 353.06C157.62 353.06 156.948 353.438 156.388 354.208L155.688 353.62C156.43 352.654 157.326 352.206 158.502 352.206ZM158.11 358.534C159.44 358.534 160.28 357.596 160.28 356.126V356.028H158.95C157.676 356.028 157.13 356.112 156.794 356.378C156.542 356.574 156.416 356.882 156.416 357.274C156.416 358.044 157.074 358.534 158.11 358.534ZM166.61 352.206C167.03 352.206 167.422 352.29 167.8 352.5L167.324 353.284C167.002 353.144 166.708 353.074 166.414 353.074C165.35 353.074 164.566 353.872 164.566 355.37V359.22H163.6V352.318H164.566V353.354C165.07 352.444 165.91 352.206 166.61 352.206ZM174.106 355.426C174.106 355.622 174.092 355.86 174.064 356.028H169.01C169.038 357.54 169.878 358.45 171.236 358.45C171.992 358.45 172.594 358.254 173.224 357.582L173.896 358.17C173.084 359.024 172.286 359.332 171.222 359.332C169.122 359.332 168.044 357.764 168.044 355.804C168.044 353.858 169.108 352.206 171.11 352.206C173.224 352.206 174.106 353.858 174.106 355.426ZM171.11 353.018C169.864 353.018 169.094 353.998 169.01 355.216H173.182C173.182 355.188 173.168 355.118 173.168 354.992C173.098 353.872 172.384 353.018 171.11 353.018ZM63.84 366.462H64.806V376.22H63.84V375.296C63.336 375.94 62.566 376.332 61.558 376.332C59.542 376.332 58.492 374.82 58.492 372.762C58.492 370.606 59.64 369.192 61.558 369.192C62.538 369.192 63.322 369.57 63.84 370.242V366.462ZM61.698 375.478C63.154 375.478 63.924 374.33 63.924 372.762C63.924 371.124 63.084 370.046 61.698 370.046C60.298 370.046 59.458 371.124 59.458 372.762C59.458 374.33 60.228 375.478 61.698 375.478ZM72.8525 372.426C72.8525 372.622 72.8385 372.86 72.8105 373.028H67.7565C67.7845 374.54 68.6245 375.45 69.9825 375.45C70.7385 375.45 71.3405 375.254 71.9705 374.582L72.6425 375.17C71.8305 376.024 71.0325 376.332 69.9685 376.332C67.8685 376.332 66.7905 374.764 66.7905 372.804C66.7905 370.858 67.8545 369.206 69.8565 369.206C71.9705 369.206 72.8525 370.858 72.8525 372.426ZM69.8565 370.018C68.6105 370.018 67.8405 370.998 67.7565 372.216H71.9285C71.9285 372.188 71.9145 372.118 71.9145 371.992C71.8445 370.872 71.1305 370.018 69.8565 370.018ZM76.0617 376.332C75.2637 376.332 74.7457 375.8 74.7457 374.722V366.462H75.7117V374.666C75.7117 375.142 75.8797 375.45 76.3417 375.45C76.5517 375.45 76.7897 375.394 76.9997 375.324L77.0137 376.15C76.7197 376.248 76.3697 376.332 76.0617 376.332ZM78.4911 367.89V366.462H79.6111V367.89H78.4911ZM78.5751 376.22V369.318H79.5411V376.22H78.5751ZM83.9088 376.22L81.0948 369.318H82.1448L84.3148 374.988L86.4988 369.318H87.5628L84.7348 376.22H83.9088ZM94.413 372.426C94.413 372.622 94.399 372.86 94.371 373.028H89.317C89.345 374.54 90.185 375.45 91.543 375.45C92.299 375.45 92.901 375.254 93.531 374.582L94.203 375.17C93.391 376.024 92.593 376.332 91.529 376.332C89.429 376.332 88.351 374.764 88.351 372.804C88.351 370.858 89.415 369.206 91.417 369.206C93.531 369.206 94.413 370.858 94.413 372.426ZM91.417 370.018C90.171 370.018 89.401 370.998 89.317 372.216H93.489C93.489 372.188 93.475 372.118 93.475 371.992C93.405 370.872 92.691 370.018 91.417 370.018ZM99.3722 369.206C99.7922 369.206 100.184 369.29 100.562 369.5L100.086 370.284C99.7642 370.144 99.4702 370.074 99.1762 370.074C98.1122 370.074 97.3282 370.872 97.3282 372.37V376.22H96.3622V369.318H97.3282V370.354C97.8322 369.444 98.6722 369.206 99.3722 369.206ZM106.868 372.426C106.868 372.622 106.854 372.86 106.826 373.028H101.772C101.8 374.54 102.64 375.45 103.998 375.45C104.754 375.45 105.356 375.254 105.986 374.582L106.658 375.17C105.846 376.024 105.048 376.332 103.984 376.332C101.884 376.332 100.806 374.764 100.806 372.804C100.806 370.858 101.87 369.206 103.872 369.206C105.986 369.206 106.868 370.858 106.868 372.426ZM103.872 370.018C102.626 370.018 101.856 370.998 101.772 372.216H105.944C105.944 372.188 105.93 372.118 105.93 371.992C105.86 370.872 105.146 370.018 103.872 370.018ZM113.619 366.462H114.585V376.22H113.619V375.296C113.115 375.94 112.345 376.332 111.337 376.332C109.321 376.332 108.271 374.82 108.271 372.762C108.271 370.606 109.419 369.192 111.337 369.192C112.317 369.192 113.101 369.57 113.619 370.242V366.462ZM111.477 375.478C112.933 375.478 113.703 374.33 113.703 372.762C113.703 371.124 112.863 370.046 111.477 370.046C110.077 370.046 109.237 371.124 109.237 372.762C109.237 374.33 110.007 375.478 111.477 375.478ZM123.352 369.206C125.088 369.206 126.096 370.2 126.096 371.922V376.22H125.214L125.158 375.156C124.612 375.926 123.772 376.332 122.68 376.332C121.182 376.332 120.3 375.548 120.3 374.218C120.3 373.518 120.58 372.986 121.084 372.678C121.616 372.37 122.358 372.244 123.716 372.244H125.13V371.922C125.13 370.718 124.5 370.06 123.338 370.06C122.47 370.06 121.798 370.438 121.238 371.208L120.538 370.62C121.28 369.654 122.176 369.206 123.352 369.206ZM122.96 375.534C124.29 375.534 125.13 374.596 125.13 373.126V373.028H123.8C122.526 373.028 121.98 373.112 121.644 373.378C121.392 373.574 121.266 373.882 121.266 374.274C121.266 375.044 121.924 375.534 122.96 375.534ZM130.536 376.332C129.178 376.332 128.072 375.632 127.708 374.526L128.52 374.162C128.772 374.876 129.444 375.478 130.522 375.478C131.46 375.478 132.062 375.016 132.062 374.288C132.062 372.454 128.086 373.602 128.086 371.152C128.086 369.948 129.066 369.206 130.452 369.206C131.558 369.206 132.454 369.668 132.93 370.648L132.16 371.068C131.824 370.452 131.278 370.06 130.424 370.06C129.57 370.06 129.024 370.41 129.024 371.012C129.024 372.65 133.014 371.614 133.014 374.232C133.014 375.632 131.866 376.332 130.536 376.332ZM142.048 369.192C143.966 369.192 145.114 370.606 145.114 372.762C145.114 374.82 144.064 376.332 142.048 376.332C141.04 376.332 140.27 375.94 139.766 375.296V379.076H138.8V369.318H139.766V370.242C140.284 369.57 141.068 369.192 142.048 369.192ZM141.908 375.478C143.378 375.478 144.148 374.33 144.148 372.762C144.148 371.124 143.308 370.046 141.908 370.046C140.522 370.046 139.682 371.124 139.682 372.762C139.682 374.33 140.452 375.478 141.908 375.478ZM150.122 369.206C150.542 369.206 150.934 369.29 151.312 369.5L150.836 370.284C150.514 370.144 150.22 370.074 149.926 370.074C148.862 370.074 148.078 370.872 148.078 372.37V376.22H147.112V369.318H148.078V370.354C148.582 369.444 149.422 369.206 150.122 369.206ZM154.818 376.332C152.844 376.332 151.514 374.806 151.514 372.762C151.514 370.718 152.844 369.206 154.818 369.206C156.778 369.206 158.136 370.718 158.136 372.762C158.136 374.792 156.792 376.332 154.818 376.332ZM154.818 375.478C156.302 375.478 157.17 374.302 157.17 372.762C157.17 371.194 156.288 370.06 154.818 370.06C153.334 370.06 152.48 371.208 152.48 372.762C152.48 374.33 153.348 375.478 154.818 375.478ZM167.213 369.206C168.865 369.206 169.551 370.298 169.551 371.908V376.22H168.585V372.174C168.585 371.586 168.585 370.06 167.073 370.06C165.673 370.06 165.295 371.348 165.295 372.902V376.22H164.329V372.23C164.329 371.082 163.979 370.06 162.775 370.06C161.431 370.06 161.053 371.334 161.053 372.902V376.22H160.087L160.073 369.318H161.011V370.158C161.445 369.472 162.145 369.206 162.915 369.206C163.881 369.206 164.595 369.626 164.945 370.536C165.393 369.654 166.163 369.206 167.213 369.206ZM171.843 367.89V366.462H172.963V367.89H171.843ZM171.927 376.22V369.318H172.893V376.22H171.927ZM177.526 376.332C176.168 376.332 175.062 375.632 174.698 374.526L175.51 374.162C175.762 374.876 176.434 375.478 177.512 375.478C178.45 375.478 179.052 375.016 179.052 374.288C179.052 372.454 175.076 373.602 175.076 371.152C175.076 369.948 176.056 369.206 177.442 369.206C178.548 369.206 179.444 369.668 179.92 370.648L179.15 371.068C178.814 370.452 178.268 370.06 177.414 370.06C176.56 370.06 176.014 370.41 176.014 371.012C176.014 372.65 180.004 371.614 180.004 374.232C180.004 375.632 178.856 376.332 177.526 376.332ZM187.395 372.426C187.395 372.622 187.381 372.86 187.353 373.028H182.299C182.327 374.54 183.167 375.45 184.525 375.45C185.281 375.45 185.883 375.254 186.513 374.582L187.185 375.17C186.373 376.024 185.575 376.332 184.511 376.332C182.411 376.332 181.333 374.764 181.333 372.804C181.333 370.858 182.397 369.206 184.399 369.206C186.513 369.206 187.395 370.858 187.395 372.426ZM184.399 370.018C183.153 370.018 182.383 370.998 182.299 372.216H186.471C186.471 372.188 186.457 372.118 186.457 371.992C186.387 370.872 185.673 370.018 184.399 370.018ZM194.147 366.462H195.113V376.22H194.147V375.296C193.643 375.94 192.873 376.332 191.865 376.332C189.849 376.332 188.799 374.82 188.799 372.762C188.799 370.606 189.947 369.192 191.865 369.192C192.845 369.192 193.629 369.57 194.147 370.242V366.462ZM192.005 375.478C193.461 375.478 194.231 374.33 194.231 372.762C194.231 371.124 193.391 370.046 192.005 370.046C190.605 370.046 189.765 371.124 189.765 372.762C189.765 374.33 190.535 375.478 192.005 375.478Z" fill="#001727"/>
<path d="M282.995 317.464C280.493 317.464 278.549 315.97 278.189 313.684L280.421 313.126C280.583 314.62 281.573 315.466 283.031 315.466C284.291 315.466 285.101 314.836 285.101 313.774C285.101 312.91 284.453 312.37 282.599 311.632C279.971 310.606 279.035 309.652 279.035 307.834C279.035 305.8 280.601 304.414 282.941 304.414C284.633 304.414 285.965 305.188 286.757 306.7L284.885 307.852C284.453 306.916 283.715 306.412 282.869 306.412C281.969 306.412 281.285 307.006 281.285 307.78C281.285 308.608 281.897 309.076 283.787 309.814C286.469 310.84 287.351 311.794 287.351 313.576C287.351 315.916 285.569 317.464 282.995 317.464ZM293.93 310.066H291.716V314.584C291.716 315.286 292.148 315.61 292.85 315.61C293.156 315.61 293.534 315.538 293.93 315.412V317.14C293.39 317.32 292.85 317.41 292.31 317.41C290.816 317.41 289.556 316.636 289.556 314.746V310.066H288.116V308.356H289.556V306.646L291.716 305.044V308.356H293.93V310.066ZM300.254 308.176C300.848 308.176 301.37 308.32 301.946 308.68L300.902 310.588C300.596 310.39 300.254 310.282 299.822 310.282C298.508 310.282 297.86 311.092 297.86 312.766V317.23H295.7V308.356H297.878V309.868C298.256 308.77 299.246 308.176 300.254 308.176ZM306.538 308.176C308.878 308.176 310.336 309.49 310.336 311.632V317.23H308.356L308.176 316.078C307.654 316.906 306.646 317.41 305.476 317.41C303.604 317.41 302.272 316.204 302.272 314.512C302.272 313.468 302.74 312.676 303.604 312.28C304.198 312.01 304.954 311.884 305.962 311.884H308.176V311.632C308.176 310.66 307.528 310.066 306.502 310.066C305.602 310.066 304.756 310.534 304.108 311.398L302.542 310.084C303.604 308.806 304.918 308.176 306.538 308.176ZM305.818 315.574C307.114 315.574 308.176 314.656 308.176 313.504H306.25C305.512 313.504 305.08 313.594 304.792 313.81C304.558 313.972 304.432 314.224 304.432 314.548C304.432 315.178 304.954 315.574 305.818 315.574ZM317.291 310.066H315.077V314.584C315.077 315.286 315.509 315.61 316.211 315.61C316.517 315.61 316.895 315.538 317.291 315.412V317.14C316.751 317.32 316.211 317.41 315.671 317.41C314.177 317.41 312.917 316.636 312.917 314.746V310.066H311.477V308.356H312.917V306.646L315.077 305.044V308.356H317.291V310.066ZM326.656 312.676C326.656 312.946 326.638 313.216 326.602 313.504H320.518C320.608 314.674 321.328 315.448 322.732 315.448C323.524 315.448 324.244 315.196 324.856 314.494L326.35 315.808C325.378 316.888 324.208 317.41 322.714 317.41C319.654 317.41 318.358 315.214 318.358 312.838C318.358 310.516 319.618 308.176 322.57 308.176C325.324 308.176 326.656 310.21 326.656 312.676ZM320.5 311.794H324.586C324.55 310.66 323.686 309.976 322.552 309.976C321.238 309.976 320.626 310.912 320.5 311.794ZM331.832 315.88C333.632 316.114 335.954 316.312 335.954 318.436C335.954 320.29 334.262 321.082 331.868 321.082C329.222 321.082 327.71 320.11 327.71 318.274C327.71 318.058 327.728 317.968 327.746 317.878L329.024 317.068C328.394 316.726 327.962 316.168 327.962 315.25C327.962 314.476 328.268 313.918 328.79 313.468C328.34 312.91 328.07 312.208 328.07 311.434C328.07 309.508 329.726 308.176 331.706 308.176C332.48 308.176 333.2 308.374 333.794 308.734L335.144 307.582L336.278 308.95L335 309.994C335.234 310.444 335.378 310.966 335.378 311.542C335.378 313.522 333.722 314.782 331.778 314.782C331.166 314.782 330.59 314.656 330.068 314.44C329.906 314.548 329.816 314.692 329.816 314.908C329.816 315.556 330.716 315.736 331.832 315.88ZM331.742 309.976C330.824 309.976 330.23 310.588 330.23 311.488C330.23 312.334 330.734 313.018 331.742 313.018C332.732 313.018 333.218 312.352 333.218 311.488C333.218 310.57 332.66 309.976 331.742 309.976ZM331.958 319.462C332.876 319.462 333.794 319.246 333.794 318.634C333.794 317.95 332.66 317.878 331.382 317.698L330.644 317.59L329.87 318.328C329.852 318.382 329.852 318.436 329.852 318.472C329.852 319.228 330.95 319.462 331.958 319.462ZM337.622 306.682V304.684H339.89V306.682H337.622ZM337.676 317.23V308.356H339.836V317.23H337.676ZM345.88 317.41C342.982 317.41 341.578 315.16 341.578 312.82C341.578 310.48 342.964 308.176 345.862 308.176C347.626 308.176 349.012 309.022 349.696 310.786L347.644 311.596C347.41 310.66 346.744 310.066 345.862 310.066C344.368 310.066 343.792 311.416 343.792 312.82C343.792 314.224 344.35 315.52 345.862 315.52C346.726 315.52 347.41 314.944 347.644 314.026L349.606 314.782C349.012 316.438 347.644 317.41 345.88 317.41ZM359.278 317.41C356.524 317.41 354.832 315.286 354.832 312.784C354.832 310.264 356.524 308.176 359.278 308.176C362.014 308.176 363.724 310.264 363.724 312.784C363.724 315.286 362.014 317.41 359.278 317.41ZM359.278 315.52C360.916 315.52 361.564 314.224 361.564 312.784C361.564 311.326 360.916 310.066 359.278 310.066C357.64 310.066 356.992 311.326 356.992 312.784C356.992 314.224 357.64 315.52 359.278 315.52ZM370.004 308.176C370.598 308.176 371.12 308.32 371.696 308.68L370.652 310.588C370.346 310.39 370.004 310.282 369.572 310.282C368.258 310.282 367.61 311.092 367.61 312.766V317.23H365.45V308.356H367.628V309.868C368.006 308.77 368.996 308.176 370.004 308.176ZM372.743 306.682V304.684H375.011V306.682H372.743ZM372.797 317.23V308.356H374.957V317.23H372.797ZM385.033 312.676C385.033 312.946 385.015 313.216 384.979 313.504H378.895C378.985 314.674 379.705 315.448 381.109 315.448C381.901 315.448 382.621 315.196 383.233 314.494L384.727 315.808C383.755 316.888 382.585 317.41 381.091 317.41C378.031 317.41 376.735 315.214 376.735 312.838C376.735 310.516 377.995 308.176 380.947 308.176C383.701 308.176 385.033 310.21 385.033 312.676ZM378.877 311.794H382.963C382.927 310.66 382.063 309.976 380.929 309.976C379.615 309.976 379.003 310.912 378.877 311.794ZM391.649 308.176C393.647 308.176 394.781 309.4 394.781 311.506V317.23H392.621V312.046C392.621 311.434 392.621 310.066 390.983 310.066C388.967 310.066 388.967 312.1 388.967 313.684V317.23H386.807V308.356H388.967V309.382C389.597 308.536 390.569 308.176 391.649 308.176ZM401.842 310.066H399.628V314.584C399.628 315.286 400.06 315.61 400.762 315.61C401.068 315.61 401.446 315.538 401.842 315.412V317.14C401.302 317.32 400.762 317.41 400.222 317.41C398.728 317.41 397.468 316.636 397.468 314.746V310.066H396.028V308.356H397.468V306.646L399.628 305.044V308.356H401.842V310.066ZM407.226 308.176C409.566 308.176 411.024 309.49 411.024 311.632V317.23H409.044L408.864 316.078C408.342 316.906 407.334 317.41 406.164 317.41C404.292 317.41 402.96 316.204 402.96 314.512C402.96 313.468 403.428 312.676 404.292 312.28C404.886 312.01 405.642 311.884 406.65 311.884H408.864V311.632C408.864 310.66 408.216 310.066 407.19 310.066C406.29 310.066 405.444 310.534 404.796 311.398L403.23 310.084C404.292 308.806 405.606 308.176 407.226 308.176ZM406.506 315.574C407.802 315.574 408.864 314.656 408.864 313.504H406.938C406.2 313.504 405.768 313.594 405.48 313.81C405.246 313.972 405.12 314.224 405.12 314.548C405.12 315.178 405.642 315.574 406.506 315.574ZM417.979 310.066H415.765V314.584C415.765 315.286 416.197 315.61 416.899 315.61C417.205 315.61 417.583 315.538 417.979 315.412V317.14C417.439 317.32 416.899 317.41 416.359 317.41C414.865 317.41 413.605 316.636 413.605 314.746V310.066H412.165V308.356H413.605V306.646L415.765 305.044V308.356H417.979V310.066ZM419.818 306.682V304.684H422.086V306.682H419.818ZM419.872 317.23V308.356H422.032V317.23H419.872ZM428.201 317.41C425.447 317.41 423.755 315.286 423.755 312.784C423.755 310.264 425.447 308.176 428.201 308.176C430.937 308.176 432.647 310.264 432.647 312.784C432.647 315.286 430.937 317.41 428.201 317.41ZM428.201 315.52C429.839 315.52 430.487 314.224 430.487 312.784C430.487 311.326 429.839 310.066 428.201 310.066C426.563 310.066 425.915 311.326 425.915 312.784C425.915 314.224 426.563 315.52 428.201 315.52ZM439.216 308.176C441.214 308.176 442.348 309.4 442.348 311.506V317.23H440.188V312.046C440.188 311.434 440.188 310.066 438.55 310.066C436.534 310.066 436.534 312.1 436.534 313.684V317.23H434.374V308.356H436.534V309.382C437.164 308.536 438.136 308.176 439.216 308.176Z" fill="#001727"/>
<path d="M327.07 343.419V334.585H323.696V333.661H331.466V334.585H328.078V343.419H327.07ZM334.579 343.531C332.605 343.531 331.275 342.005 331.275 339.961C331.275 337.917 332.605 336.405 334.579 336.405C336.539 336.405 337.897 337.917 337.897 339.961C337.897 341.991 336.553 343.531 334.579 343.531ZM334.579 342.677C336.063 342.677 336.931 341.501 336.931 339.961C336.931 338.393 336.049 337.259 334.579 337.259C333.095 337.259 332.241 338.407 332.241 339.961C332.241 341.529 333.109 342.677 334.579 342.677ZM348.478 333.661H349.444V343.419H348.478V342.495C347.974 343.139 347.204 343.531 346.196 343.531C344.18 343.531 343.13 342.019 343.13 339.961C343.13 337.805 344.278 336.391 346.196 336.391C347.176 336.391 347.96 336.769 348.478 337.441V333.661ZM346.336 342.677C347.792 342.677 348.562 341.529 348.562 339.961C348.562 338.323 347.722 337.245 346.336 337.245C344.936 337.245 344.096 338.323 344.096 339.961C344.096 341.529 344.866 342.677 346.336 342.677ZM354.998 336.405C355.418 336.405 355.81 336.489 356.188 336.699L355.712 337.483C355.39 337.343 355.096 337.273 354.802 337.273C353.738 337.273 352.954 338.071 352.954 339.569V343.419H351.988V336.517H352.954V337.553C353.458 336.643 354.298 336.405 354.998 336.405ZM357.537 335.089V333.661H358.657V335.089H357.537ZM357.621 343.419V336.517H358.587V343.419H357.621ZM362.955 343.419L360.141 336.517H361.191L363.361 342.187L365.545 336.517H366.609L363.781 343.419H362.955ZM373.459 339.625C373.459 339.821 373.445 340.059 373.417 340.227H368.363C368.391 341.739 369.231 342.649 370.589 342.649C371.345 342.649 371.947 342.453 372.577 341.781L373.249 342.369C372.437 343.223 371.639 343.531 370.575 343.531C368.475 343.531 367.397 341.963 367.397 340.003C367.397 338.057 368.461 336.405 370.463 336.405C372.577 336.405 373.459 338.057 373.459 339.625ZM370.463 337.217C369.217 337.217 368.447 338.197 368.363 339.415H372.535C372.535 339.387 372.521 339.317 372.521 339.191C372.451 338.071 371.737 337.217 370.463 337.217ZM382.092 342.495L382.106 343.349C381.742 343.461 381.378 343.531 381.056 343.531C380.132 343.531 379.46 343.013 379.46 341.795V337.329H378.312V336.517H379.46V334.725L380.426 333.997V336.517H382.092V337.329H380.426V341.669C380.426 342.341 380.734 342.649 381.28 342.649C381.518 342.649 381.784 342.593 382.092 342.495ZM387.187 336.405C388.671 336.405 389.441 337.357 389.441 339.191V343.419H388.475V339.429C388.475 337.931 387.999 337.259 386.963 337.259C385.647 337.259 384.905 338.337 384.905 340.241V343.419H383.939V333.661H384.905V337.525C385.353 336.825 386.193 336.405 387.187 336.405ZM397.33 339.625C397.33 339.821 397.316 340.059 397.288 340.227H392.234C392.262 341.739 393.102 342.649 394.46 342.649C395.216 342.649 395.818 342.453 396.448 341.781L397.12 342.369C396.308 343.223 395.51 343.531 394.446 343.531C392.346 343.531 391.268 341.963 391.268 340.003C391.268 338.057 392.332 336.405 394.334 336.405C396.448 336.405 397.33 338.057 397.33 339.625ZM394.334 337.217C393.088 337.217 392.318 338.197 392.234 339.415H396.406C396.406 339.387 396.392 339.317 396.392 339.191C396.322 338.071 395.608 337.217 394.334 337.217ZM317.882 359.495L317.896 360.349C317.532 360.461 317.168 360.531 316.846 360.531C315.922 360.531 315.25 360.013 315.25 358.795V354.329H314.102V353.517H315.25V351.725L316.216 350.997V353.517H317.882V354.329H316.216V358.669C316.216 359.341 316.524 359.649 317.07 359.649C317.308 359.649 317.574 359.593 317.882 359.495ZM322.603 353.405C323.023 353.405 323.415 353.489 323.793 353.699L323.317 354.483C322.995 354.343 322.701 354.273 322.407 354.273C321.343 354.273 320.559 355.071 320.559 356.569V360.419H319.593V353.517H320.559V354.553C321.063 353.643 321.903 353.405 322.603 353.405ZM327.619 353.405C329.355 353.405 330.363 354.399 330.363 356.121V360.419H329.481L329.425 359.355C328.879 360.125 328.039 360.531 326.947 360.531C325.449 360.531 324.567 359.747 324.567 358.417C324.567 357.717 324.847 357.185 325.351 356.877C325.883 356.569 326.625 356.443 327.983 356.443H329.397V356.121C329.397 354.917 328.767 354.259 327.605 354.259C326.737 354.259 326.065 354.637 325.505 355.407L324.805 354.819C325.547 353.853 326.443 353.405 327.619 353.405ZM327.227 359.733C328.557 359.733 329.397 358.795 329.397 357.325V357.227H328.067C326.793 357.227 326.247 357.311 325.911 357.577C325.659 357.773 325.533 358.081 325.533 358.473C325.533 359.243 326.191 359.733 327.227 359.733ZM335.966 353.405C337.45 353.405 338.22 354.357 338.22 356.191V360.419H337.254V356.429C337.254 354.945 336.778 354.259 335.742 354.259C334.44 354.259 333.684 355.379 333.684 357.325V360.419H332.718V353.517H333.684V354.525C334.132 353.825 334.972 353.405 335.966 353.405ZM342.692 360.531C341.334 360.531 340.228 359.831 339.864 358.725L340.676 358.361C340.928 359.075 341.6 359.677 342.678 359.677C343.616 359.677 344.218 359.215 344.218 358.487C344.218 356.653 340.242 357.801 340.242 355.351C340.242 354.147 341.222 353.405 342.608 353.405C343.714 353.405 344.61 353.867 345.086 354.847L344.316 355.267C343.98 354.651 343.434 354.259 342.58 354.259C341.726 354.259 341.18 354.609 341.18 355.211C341.18 356.849 345.17 355.813 345.17 358.431C345.17 359.831 344.022 360.531 342.692 360.531ZM347.548 360.419V354.329H346.092V353.517H347.562V352.453C347.562 350.983 348.416 350.549 349.298 350.549C349.676 350.549 350.096 350.633 350.53 350.815L350.194 351.585C349.9 351.445 349.634 351.361 349.396 351.361C348.85 351.361 348.514 351.739 348.514 352.383V353.517H350.502V354.329H348.514V360.419H347.548ZM354.437 360.531C352.463 360.531 351.133 359.005 351.133 356.961C351.133 354.917 352.463 353.405 354.437 353.405C356.397 353.405 357.755 354.917 357.755 356.961C357.755 358.991 356.411 360.531 354.437 360.531ZM354.437 359.677C355.921 359.677 356.789 358.501 356.789 356.961C356.789 355.393 355.907 354.259 354.437 354.259C352.953 354.259 352.099 355.407 352.099 356.961C352.099 358.529 352.967 359.677 354.437 359.677ZM362.716 353.405C363.136 353.405 363.528 353.489 363.906 353.699L363.43 354.483C363.108 354.343 362.814 354.273 362.52 354.273C361.456 354.273 360.672 355.071 360.672 356.569V360.419H359.706V353.517H360.672V354.553C361.176 353.643 362.016 353.405 362.716 353.405ZM372.465 353.405C374.117 353.405 374.803 354.497 374.803 356.107V360.419H373.837V356.373C373.837 355.785 373.837 354.259 372.325 354.259C370.925 354.259 370.547 355.547 370.547 357.101V360.419H369.581V356.429C369.581 355.281 369.231 354.259 368.027 354.259C366.683 354.259 366.305 355.533 366.305 357.101V360.419H365.339L365.325 353.517H366.263V354.357C366.697 353.671 367.397 353.405 368.167 353.405C369.133 353.405 369.847 353.825 370.197 354.735C370.645 353.853 371.415 353.405 372.465 353.405ZM379.573 353.405C381.309 353.405 382.317 354.399 382.317 356.121V360.419H381.435L381.379 359.355C380.833 360.125 379.993 360.531 378.901 360.531C377.403 360.531 376.521 359.747 376.521 358.417C376.521 357.717 376.801 357.185 377.305 356.877C377.837 356.569 378.579 356.443 379.937 356.443H381.351V356.121C381.351 354.917 380.721 354.259 379.559 354.259C378.691 354.259 378.019 354.637 377.459 355.407L376.759 354.819C377.501 353.853 378.397 353.405 379.573 353.405ZM379.181 359.733C380.511 359.733 381.351 358.795 381.351 357.325V357.227H380.021C378.747 357.227 378.201 357.311 377.865 357.577C377.613 357.773 377.487 358.081 377.487 358.473C377.487 359.243 378.145 359.733 379.181 359.733ZM387.527 359.495L387.541 360.349C387.177 360.461 386.813 360.531 386.491 360.531C385.567 360.531 384.895 360.013 384.895 358.795V354.329H383.747V353.517H384.895V351.725L385.861 350.997V353.517H387.527V354.329H385.861V358.669C385.861 359.341 386.169 359.649 386.715 359.649C386.953 359.649 387.219 359.593 387.527 359.495ZM389.29 352.089V350.661H390.41V352.089H389.29ZM389.374 360.419V353.517H390.34V360.419H389.374ZM395.59 360.531C393.616 360.531 392.286 359.005 392.286 356.961C392.286 354.917 393.616 353.405 395.59 353.405C397.55 353.405 398.908 354.917 398.908 356.961C398.908 358.991 397.564 360.531 395.59 360.531ZM395.59 359.677C397.074 359.677 397.942 358.501 397.942 356.961C397.942 355.393 397.06 354.259 395.59 354.259C394.106 354.259 393.252 355.407 393.252 356.961C393.252 358.529 394.12 359.677 395.59 359.677ZM404.106 353.405C405.59 353.405 406.36 354.357 406.36 356.191V360.419H405.394V356.429C405.394 354.945 404.918 354.259 403.882 354.259C402.58 354.259 401.824 355.379 401.824 357.325V360.419H400.858V353.517H401.824V354.525C402.272 353.825 403.112 353.405 404.106 353.405ZM341.449 370.405C343.185 370.405 344.193 371.399 344.193 373.121V377.419H343.311L343.255 376.355C342.709 377.125 341.869 377.531 340.777 377.531C339.279 377.531 338.397 376.747 338.397 375.417C338.397 374.717 338.677 374.185 339.181 373.877C339.713 373.569 340.455 373.443 341.813 373.443H343.227V373.121C343.227 371.917 342.597 371.259 341.435 371.259C340.567 371.259 339.895 371.637 339.335 372.407L338.635 371.819C339.377 370.853 340.273 370.405 341.449 370.405ZM341.057 376.733C342.387 376.733 343.227 375.795 343.227 374.325V374.227H341.897C340.623 374.227 340.077 374.311 339.741 374.577C339.489 374.773 339.363 375.081 339.363 375.473C339.363 376.243 340.021 376.733 341.057 376.733ZM348.927 376.579C350.299 376.789 351.923 376.985 351.923 378.483C351.923 379.785 350.705 380.387 348.969 380.387C347.051 380.387 345.889 379.631 345.889 378.259C345.889 378.119 345.903 378.035 345.917 377.951L347.037 376.999C346.505 376.761 346.141 376.369 346.141 375.683C346.141 375.123 346.393 374.703 346.883 374.367C346.519 373.947 346.295 373.415 346.295 372.799C346.295 371.399 347.443 370.405 348.927 370.405C349.599 370.405 350.201 370.615 350.649 370.965L351.601 370.139L352.105 370.769L351.167 371.553C351.405 371.931 351.545 372.365 351.545 372.855C351.545 374.269 350.397 375.207 348.941 375.207C348.409 375.207 347.919 375.081 347.513 374.857C347.233 375.011 347.065 375.263 347.065 375.557C347.065 376.257 347.933 376.425 348.927 376.579ZM348.941 371.217C347.961 371.217 347.247 371.875 347.247 372.827C347.247 373.723 347.891 374.409 348.927 374.409C349.963 374.409 350.579 373.737 350.579 372.827C350.579 371.875 349.935 371.217 348.941 371.217ZM349.011 379.575C350.229 379.575 350.957 379.239 350.957 378.567C350.957 377.727 349.865 377.601 348.717 377.419C348.409 377.377 348.087 377.321 347.793 377.251L346.855 378.161C346.841 378.231 346.841 378.259 346.841 378.287C346.841 379.267 347.835 379.575 349.011 379.575ZM359.076 373.625C359.076 373.821 359.062 374.059 359.034 374.227H353.98C354.008 375.739 354.848 376.649 356.206 376.649C356.962 376.649 357.564 376.453 358.194 375.781L358.866 376.369C358.054 377.223 357.256 377.531 356.192 377.531C354.092 377.531 353.014 375.963 353.014 374.003C353.014 372.057 354.078 370.405 356.08 370.405C358.194 370.405 359.076 372.057 359.076 373.625ZM356.08 371.217C354.834 371.217 354.064 372.197 353.98 373.415H358.152C358.152 373.387 358.138 373.317 358.138 373.191C358.068 372.071 357.354 371.217 356.08 371.217ZM364.273 370.405C365.757 370.405 366.527 371.357 366.527 373.191V377.419H365.561V373.429C365.561 371.945 365.085 371.259 364.049 371.259C362.747 371.259 361.991 372.379 361.991 374.325V377.419H361.025V370.517H361.991V371.525C362.439 370.825 363.279 370.405 364.273 370.405ZM373.716 367.661H374.682V377.419H373.716V376.495C373.212 377.139 372.442 377.531 371.434 377.531C369.418 377.531 368.368 376.019 368.368 373.961C368.368 371.805 369.516 370.391 371.434 370.391C372.414 370.391 373.198 370.769 373.716 371.441V367.661ZM371.574 376.677C373.03 376.677 373.8 375.529 373.8 373.961C373.8 372.323 372.96 371.245 371.574 371.245C370.174 371.245 369.334 372.323 369.334 373.961C369.334 375.529 370.104 376.677 371.574 376.677ZM379.62 370.405C381.356 370.405 382.364 371.399 382.364 373.121V377.419H381.482L381.426 376.355C380.88 377.125 380.04 377.531 378.948 377.531C377.45 377.531 376.568 376.747 376.568 375.417C376.568 374.717 376.848 374.185 377.352 373.877C377.884 373.569 378.626 373.443 379.984 373.443H381.398V373.121C381.398 371.917 380.768 371.259 379.606 371.259C378.738 371.259 378.066 371.637 377.506 372.407L376.806 371.819C377.548 370.853 378.444 370.405 379.62 370.405ZM379.228 376.733C380.558 376.733 381.398 375.795 381.398 374.325V374.227H380.068C378.794 374.227 378.248 374.311 377.912 374.577C377.66 374.773 377.534 375.081 377.534 375.473C377.534 376.243 378.192 376.733 379.228 376.733Z" fill="#001727"/>
<path d="M156.46 108.02C152.896 108.02 150.466 105.41 150.466 101.486C150.466 97.544 152.896 94.934 156.46 94.934C160.042 94.934 162.454 97.544 162.454 101.486C162.454 105.41 160.024 108.02 156.46 108.02ZM156.46 105.878C158.746 105.878 160.204 104.186 160.204 101.486C160.204 98.768 158.746 97.076 156.46 97.076C154.174 97.076 152.716 98.75 152.716 101.486C152.716 104.204 154.174 105.878 156.46 105.878ZM166.687 107.75L163.069 98.876H165.427L167.569 104.942L169.747 98.876H172.087L168.469 107.75H166.687ZM180.557 103.196C180.557 103.466 180.539 103.736 180.503 104.024H174.419C174.509 105.194 175.229 105.968 176.633 105.968C177.425 105.968 178.145 105.716 178.757 105.014L180.251 106.328C179.279 107.408 178.109 107.93 176.615 107.93C173.555 107.93 172.259 105.734 172.259 103.358C172.259 101.036 173.519 98.696 176.471 98.696C179.225 98.696 180.557 100.73 180.557 103.196ZM174.401 102.314H178.487C178.451 101.18 177.587 100.496 176.453 100.496C175.139 100.496 174.527 101.432 174.401 102.314ZM186.885 98.696C187.479 98.696 188.001 98.84 188.577 99.2L187.533 101.108C187.227 100.91 186.885 100.802 186.453 100.802C185.139 100.802 184.491 101.612 184.491 103.286V107.75H182.331V98.876H184.509V100.388C184.887 99.29 185.877 98.696 186.885 98.696ZM192.169 107.93C190.297 107.93 188.875 106.796 188.443 105.446L190.171 104.672C190.405 105.32 190.873 106.13 192.061 106.13C193.069 106.13 193.501 105.554 193.501 105.086C193.501 103.592 188.929 104.582 188.929 101.288C188.929 99.578 190.477 98.696 192.187 98.696C193.717 98.696 194.887 99.416 195.553 100.622L193.879 101.54C193.573 100.982 193.087 100.406 192.115 100.406C191.413 100.406 190.981 100.748 190.981 101.162C190.981 102.512 195.625 101.72 195.625 104.96C195.625 107.03 193.843 107.93 192.169 107.93ZM197.394 97.202V95.204H199.662V97.202H197.394ZM197.448 107.75V98.876H199.608V107.75H197.448ZM205.526 106.4C207.326 106.634 209.648 106.832 209.648 108.956C209.648 110.81 207.956 111.602 205.562 111.602C202.916 111.602 201.404 110.63 201.404 108.794C201.404 108.578 201.422 108.488 201.44 108.398L202.718 107.588C202.088 107.246 201.656 106.688 201.656 105.77C201.656 104.996 201.962 104.438 202.484 103.988C202.034 103.43 201.764 102.728 201.764 101.954C201.764 100.028 203.42 98.696 205.4 98.696C206.174 98.696 206.894 98.894 207.488 99.254L208.838 98.102L209.972 99.47L208.694 100.514C208.928 100.964 209.072 101.486 209.072 102.062C209.072 104.042 207.416 105.302 205.472 105.302C204.86 105.302 204.284 105.176 203.762 104.96C203.6 105.068 203.51 105.212 203.51 105.428C203.51 106.076 204.41 106.256 205.526 106.4ZM205.436 100.496C204.518 100.496 203.924 101.108 203.924 102.008C203.924 102.854 204.428 103.538 205.436 103.538C206.426 103.538 206.912 102.872 206.912 102.008C206.912 101.09 206.354 100.496 205.436 100.496ZM205.652 109.982C206.57 109.982 207.488 109.766 207.488 109.154C207.488 108.47 206.354 108.398 205.076 108.218L204.338 108.11L203.564 108.848C203.546 108.902 203.546 108.956 203.546 108.992C203.546 109.748 204.644 109.982 205.652 109.982ZM216.23 98.696C218.228 98.696 219.362 99.902 219.362 102.026V107.75H217.202V102.566C217.202 101.216 216.68 100.586 215.564 100.586C214.142 100.586 213.548 101.648 213.548 104.204V107.75H211.388V95.204H213.548V99.884C214.142 99.11 215.06 98.696 216.23 98.696ZM226.422 100.586H224.208V105.104C224.208 105.806 224.64 106.13 225.342 106.13C225.648 106.13 226.026 106.058 226.422 105.932V107.66C225.882 107.84 225.342 107.93 224.802 107.93C223.308 107.93 222.048 107.156 222.048 105.266V100.586H220.608V98.876H222.048V97.166L224.208 95.564V98.876H226.422V100.586ZM242.413 107.066L240.883 108.416L239.227 106.526C238.219 107.408 236.905 107.948 235.447 107.948C233.143 107.948 231.325 106.832 231.325 104.816C231.325 102.908 232.747 101.828 234.241 100.964C233.701 100.406 232.747 99.344 232.747 98.012C232.747 96.176 234.511 95.06 236.221 95.06C238.039 95.06 239.551 96.338 239.551 97.994C239.551 99.506 238.525 100.496 237.301 101.324L239.065 103.304C239.263 102.764 239.371 102.17 239.371 101.576L241.477 101.792C241.423 102.944 241.081 104.024 240.541 104.96L242.413 107.066ZM234.835 98.048C234.835 98.696 235.501 99.542 235.897 100.01C236.833 99.434 237.553 98.84 237.553 98.03C237.553 97.346 237.103 96.752 236.239 96.752C235.501 96.752 234.835 97.202 234.835 98.048ZM235.393 106.112C236.419 106.112 237.301 105.716 237.967 105.068L235.591 102.368C234.421 103.088 233.431 103.808 233.431 104.852C233.431 105.698 234.223 106.112 235.393 106.112ZM251.176 106.4C252.976 106.634 255.298 106.832 255.298 108.956C255.298 110.81 253.606 111.602 251.212 111.602C248.566 111.602 247.054 110.63 247.054 108.794C247.054 108.578 247.072 108.488 247.09 108.398L248.368 107.588C247.738 107.246 247.306 106.688 247.306 105.77C247.306 104.996 247.612 104.438 248.134 103.988C247.684 103.43 247.414 102.728 247.414 101.954C247.414 100.028 249.07 98.696 251.05 98.696C251.824 98.696 252.544 98.894 253.138 99.254L254.488 98.102L255.622 99.47L254.344 100.514C254.578 100.964 254.722 101.486 254.722 102.062C254.722 104.042 253.066 105.302 251.122 105.302C250.51 105.302 249.934 105.176 249.412 104.96C249.25 105.068 249.16 105.212 249.16 105.428C249.16 106.076 250.06 106.256 251.176 106.4ZM251.086 100.496C250.168 100.496 249.574 101.108 249.574 102.008C249.574 102.854 250.078 103.538 251.086 103.538C252.076 103.538 252.562 102.872 252.562 102.008C252.562 101.09 252.004 100.496 251.086 100.496ZM251.302 109.982C252.22 109.982 253.138 109.766 253.138 109.154C253.138 108.47 252.004 108.398 250.726 108.218L249.988 108.11L249.214 108.848C249.196 108.902 249.196 108.956 249.196 108.992C249.196 109.748 250.294 109.982 251.302 109.982ZM260.129 107.93C257.375 107.93 255.683 105.806 255.683 103.304C255.683 100.784 257.375 98.696 260.129 98.696C262.865 98.696 264.575 100.784 264.575 103.304C264.575 105.806 262.865 107.93 260.129 107.93ZM260.129 106.04C261.767 106.04 262.415 104.744 262.415 103.304C262.415 101.846 261.767 100.586 260.129 100.586C258.491 100.586 257.843 101.846 257.843 103.304C257.843 104.744 258.491 106.04 260.129 106.04ZM268.306 107.75L264.688 98.876H267.046L269.188 104.942L271.366 98.876H273.706L270.088 107.75H268.306ZM282.176 103.196C282.176 103.466 282.158 103.736 282.122 104.024H276.038C276.128 105.194 276.848 105.968 278.252 105.968C279.044 105.968 279.764 105.716 280.376 105.014L281.87 106.328C280.898 107.408 279.728 107.93 278.234 107.93C275.174 107.93 273.878 105.734 273.878 103.358C273.878 101.036 275.138 98.696 278.09 98.696C280.844 98.696 282.176 100.73 282.176 103.196ZM276.02 102.314H280.106C280.07 101.18 279.206 100.496 278.072 100.496C276.758 100.496 276.146 101.432 276.02 102.314ZM288.504 98.696C289.098 98.696 289.62 98.84 290.196 99.2L289.152 101.108C288.846 100.91 288.504 100.802 288.072 100.802C286.758 100.802 286.11 101.612 286.11 103.286V107.75H283.95V98.876H286.128V100.388C286.506 99.29 287.496 98.696 288.504 98.696ZM296.139 98.696C298.137 98.696 299.271 99.92 299.271 102.026V107.75H297.111V102.566C297.111 101.954 297.111 100.586 295.473 100.586C293.457 100.586 293.457 102.62 293.457 104.204V107.75H291.297V98.876H293.457V99.902C294.087 99.056 295.059 98.696 296.139 98.696ZM305.036 98.696C307.376 98.696 308.834 100.01 308.834 102.152V107.75H306.854L306.674 106.598C306.152 107.426 305.144 107.93 303.974 107.93C302.102 107.93 300.77 106.724 300.77 105.032C300.77 103.988 301.238 103.196 302.102 102.8C302.696 102.53 303.452 102.404 304.46 102.404H306.674V102.152C306.674 101.18 306.026 100.586 305 100.586C304.1 100.586 303.254 101.054 302.606 101.918L301.04 100.604C302.102 99.326 303.416 98.696 305.036 98.696ZM304.316 106.094C305.612 106.094 306.674 105.176 306.674 104.024H304.748C304.01 104.024 303.578 104.114 303.29 104.33C303.056 104.492 302.93 104.744 302.93 105.068C302.93 105.698 303.452 106.094 304.316 106.094ZM315.95 98.696C317.948 98.696 319.082 99.92 319.082 102.026V107.75H316.922V102.566C316.922 101.954 316.922 100.586 315.284 100.586C313.268 100.586 313.268 102.62 313.268 104.204V107.75H311.108V98.876H313.268V99.902C313.898 99.056 314.87 98.696 315.95 98.696ZM324.937 107.93C322.039 107.93 320.635 105.68 320.635 103.34C320.635 101 322.021 98.696 324.919 98.696C326.683 98.696 328.069 99.542 328.753 101.306L326.701 102.116C326.467 101.18 325.801 100.586 324.919 100.586C323.425 100.586 322.849 101.936 322.849 103.34C322.849 104.744 323.407 106.04 324.919 106.04C325.783 106.04 326.467 105.464 326.701 104.546L328.663 105.302C328.069 106.958 326.701 107.93 324.937 107.93ZM337.775 103.196C337.775 103.466 337.757 103.736 337.721 104.024H331.637C331.727 105.194 332.447 105.968 333.851 105.968C334.643 105.968 335.363 105.716 335.975 105.014L337.469 106.328C336.497 107.408 335.327 107.93 333.833 107.93C330.773 107.93 329.477 105.734 329.477 103.358C329.477 101.036 330.737 98.696 333.689 98.696C336.443 98.696 337.775 100.73 337.775 103.196ZM331.619 102.314H335.705C335.669 101.18 334.805 100.496 333.671 100.496C332.357 100.496 331.745 101.432 331.619 102.314Z" fill="#001727"/>
<path d="M189.527 133.938V124.18H195.925V125.104H190.521V128.506H195.379V129.43H190.521V133.014H195.925V133.938H189.527ZM201.299 126.924C202.783 126.924 203.553 127.876 203.553 129.71V133.938H202.587V129.948C202.587 128.464 202.111 127.778 201.075 127.778C199.773 127.778 199.017 128.898 199.017 130.844V133.938H198.051V127.036H199.017V128.044C199.465 127.344 200.305 126.924 201.299 126.924ZM208.025 134.05C206.667 134.05 205.561 133.35 205.197 132.244L206.009 131.88C206.261 132.594 206.933 133.196 208.011 133.196C208.949 133.196 209.551 132.734 209.551 132.006C209.551 130.172 205.575 131.32 205.575 128.87C205.575 127.666 206.555 126.924 207.941 126.924C209.047 126.924 209.943 127.386 210.419 128.366L209.649 128.786C209.313 128.17 208.767 127.778 207.913 127.778C207.059 127.778 206.513 128.128 206.513 128.73C206.513 130.368 210.503 129.332 210.503 131.95C210.503 133.35 209.355 134.05 208.025 134.05ZM216.76 127.036H217.726V133.938H216.76V132.944C216.27 133.686 215.388 134.05 214.478 134.05C212.91 134.05 212.224 132.972 212.224 131.264V127.036H213.19V131.026C213.19 132.146 213.386 133.196 214.702 133.196C216.074 133.196 216.76 132.006 216.76 130.214V127.036ZM223.291 126.924C223.711 126.924 224.103 127.008 224.481 127.218L224.005 128.002C223.683 127.862 223.389 127.792 223.095 127.792C222.031 127.792 221.247 128.59 221.247 130.088V133.938H220.281V127.036H221.247V128.072C221.751 127.162 222.591 126.924 223.291 126.924ZM225.83 125.608V124.18H226.95V125.608H225.83ZM225.914 133.938V127.036H226.88V133.938H225.914ZM232.676 126.924C234.16 126.924 234.93 127.876 234.93 129.71V133.938H233.964V129.948C233.964 128.464 233.488 127.778 232.452 127.778C231.15 127.778 230.394 128.898 230.394 130.844V133.938H229.428V127.036H230.394V128.044C230.842 127.344 231.682 126.924 232.676 126.924ZM239.696 133.098C241.068 133.308 242.692 133.504 242.692 135.002C242.692 136.304 241.474 136.906 239.738 136.906C237.82 136.906 236.658 136.15 236.658 134.778C236.658 134.638 236.672 134.554 236.686 134.47L237.806 133.518C237.274 133.28 236.91 132.888 236.91 132.202C236.91 131.642 237.162 131.222 237.652 130.886C237.288 130.466 237.064 129.934 237.064 129.318C237.064 127.918 238.212 126.924 239.696 126.924C240.368 126.924 240.97 127.134 241.418 127.484L242.37 126.658L242.874 127.288L241.936 128.072C242.174 128.45 242.314 128.884 242.314 129.374C242.314 130.788 241.166 131.726 239.71 131.726C239.178 131.726 238.688 131.6 238.282 131.376C238.002 131.53 237.834 131.782 237.834 132.076C237.834 132.776 238.702 132.944 239.696 133.098ZM239.71 127.736C238.73 127.736 238.016 128.394 238.016 129.346C238.016 130.242 238.66 130.928 239.696 130.928C240.732 130.928 241.348 130.256 241.348 129.346C241.348 128.394 240.704 127.736 239.71 127.736ZM239.78 136.094C240.998 136.094 241.726 135.758 241.726 135.086C241.726 134.246 240.634 134.12 239.486 133.938C239.178 133.896 238.856 133.84 238.562 133.77L237.624 134.68C237.61 134.75 237.61 134.778 237.61 134.806C237.61 135.786 238.604 136.094 239.78 136.094ZM253.947 130.144C253.947 130.34 253.933 130.578 253.905 130.746H248.851C248.879 132.258 249.719 133.168 251.077 133.168C251.833 133.168 252.435 132.972 253.065 132.3L253.737 132.888C252.925 133.742 252.127 134.05 251.063 134.05C248.963 134.05 247.885 132.482 247.885 130.522C247.885 128.576 248.949 126.924 250.951 126.924C253.065 126.924 253.947 128.576 253.947 130.144ZM250.951 127.736C249.705 127.736 248.935 128.716 248.851 129.934H253.023C253.023 129.906 253.009 129.836 253.009 129.71C252.939 128.59 252.225 127.736 250.951 127.736ZM256.05 133.938V127.848H254.86V127.036H256.05V126.406C256.05 124.978 257.226 124.068 258.682 124.068C259.256 124.068 259.858 124.208 260.362 124.516C260.726 124.222 261.244 124.068 261.804 124.068C262.182 124.068 262.532 124.166 262.868 124.334L262.546 125.118C262.322 125.006 262.098 124.936 261.874 124.936C261.118 124.936 260.698 125.286 260.698 126.07V127.036H262.854V127.848H260.698V133.938H259.746V127.848H257.016V133.938H256.05ZM257.016 127.036H259.746V125.972C259.746 125.65 259.816 125.384 259.956 125.16C259.606 124.964 259.158 124.866 258.724 124.866C257.632 124.866 257.016 125.496 257.016 126.42V127.036ZM269.848 130.144C269.848 130.34 269.834 130.578 269.806 130.746H264.752C264.78 132.258 265.62 133.168 266.978 133.168C267.734 133.168 268.336 132.972 268.966 132.3L269.638 132.888C268.826 133.742 268.028 134.05 266.964 134.05C264.864 134.05 263.786 132.482 263.786 130.522C263.786 128.576 264.85 126.924 266.852 126.924C268.966 126.924 269.848 128.576 269.848 130.144ZM266.852 127.736C265.606 127.736 264.836 128.716 264.752 129.934H268.924C268.924 129.906 268.91 129.836 268.91 129.71C268.84 128.59 268.126 127.736 266.852 127.736ZM274.345 134.05C272.343 134.05 271.223 132.426 271.223 130.508C271.223 128.688 272.245 126.924 274.331 126.924C275.563 126.924 276.585 127.54 277.131 128.828L276.207 129.192C275.885 128.31 275.199 127.778 274.331 127.778C272.861 127.778 272.203 129.094 272.203 130.508C272.203 131.922 272.861 133.196 274.345 133.196C275.213 133.196 275.899 132.678 276.165 131.796L277.061 132.132C276.599 133.392 275.591 134.05 274.345 134.05ZM281.762 133.014L281.776 133.868C281.412 133.98 281.048 134.05 280.726 134.05C279.802 134.05 279.13 133.532 279.13 132.314V127.848H277.982V127.036H279.13V125.244L280.096 124.516V127.036H281.762V127.848H280.096V132.188C280.096 132.86 280.404 133.168 280.95 133.168C281.188 133.168 281.454 133.112 281.762 133.014ZM283.525 125.608V124.18H284.645V125.608H283.525ZM283.609 133.938V127.036H284.575V133.938H283.609ZM288.943 133.938L286.129 127.036H287.179L289.349 132.706L291.533 127.036H292.597L289.769 133.938H288.943ZM299.447 130.144C299.447 130.34 299.433 130.578 299.405 130.746H294.351C294.379 132.258 295.219 133.168 296.577 133.168C297.333 133.168 297.935 132.972 298.565 132.3L299.237 132.888C298.425 133.742 297.627 134.05 296.563 134.05C294.463 134.05 293.385 132.482 293.385 130.522C293.385 128.576 294.449 126.924 296.451 126.924C298.565 126.924 299.447 128.576 299.447 130.144ZM296.451 127.736C295.205 127.736 294.435 128.716 294.351 129.934H298.523C298.523 129.906 298.509 129.836 298.509 129.71C298.439 128.59 297.725 127.736 296.451 127.736ZM181.388 143.924C183.04 143.924 183.726 145.016 183.726 146.626V150.938H182.76V146.892C182.76 146.304 182.76 144.778 181.248 144.778C179.848 144.778 179.47 146.066 179.47 147.62V150.938H178.504V146.948C178.504 145.8 178.154 144.778 176.95 144.778C175.606 144.778 175.228 146.052 175.228 147.62V150.938H174.262L174.248 144.036H175.186V144.876C175.62 144.19 176.32 143.924 177.09 143.924C178.056 143.924 178.77 144.344 179.12 145.254C179.568 144.372 180.338 143.924 181.388 143.924ZM188.495 143.924C190.231 143.924 191.239 144.918 191.239 146.64V150.938H190.357L190.301 149.874C189.755 150.644 188.915 151.05 187.823 151.05C186.325 151.05 185.443 150.266 185.443 148.936C185.443 148.236 185.723 147.704 186.227 147.396C186.759 147.088 187.501 146.962 188.859 146.962H190.273V146.64C190.273 145.436 189.643 144.778 188.481 144.778C187.613 144.778 186.941 145.156 186.381 145.926L185.681 145.338C186.423 144.372 187.319 143.924 188.495 143.924ZM188.103 150.252C189.433 150.252 190.273 149.314 190.273 147.844V147.746H188.943C187.669 147.746 187.123 147.83 186.787 148.096C186.535 148.292 186.409 148.6 186.409 148.992C186.409 149.762 187.067 150.252 188.103 150.252ZM196.842 143.924C198.326 143.924 199.096 144.876 199.096 146.71V150.938H198.13V146.948C198.13 145.464 197.654 144.778 196.618 144.778C195.316 144.778 194.56 145.898 194.56 147.844V150.938H193.594V144.036H194.56V145.044C195.008 144.344 195.848 143.924 196.842 143.924ZM203.876 143.924C205.612 143.924 206.62 144.918 206.62 146.64V150.938H205.738L205.682 149.874C205.136 150.644 204.296 151.05 203.204 151.05C201.706 151.05 200.824 150.266 200.824 148.936C200.824 148.236 201.104 147.704 201.608 147.396C202.14 147.088 202.882 146.962 204.24 146.962H205.654V146.64C205.654 145.436 205.024 144.778 203.862 144.778C202.994 144.778 202.322 145.156 201.762 145.926L201.062 145.338C201.804 144.372 202.7 143.924 203.876 143.924ZM203.484 150.252C204.814 150.252 205.654 149.314 205.654 147.844V147.746H204.324C203.05 147.746 202.504 147.83 202.168 148.096C201.916 148.292 201.79 148.6 201.79 148.992C201.79 149.762 202.448 150.252 203.484 150.252ZM211.355 150.098C212.727 150.308 214.351 150.504 214.351 152.002C214.351 153.304 213.133 153.906 211.397 153.906C209.479 153.906 208.317 153.15 208.317 151.778C208.317 151.638 208.331 151.554 208.345 151.47L209.465 150.518C208.933 150.28 208.569 149.888 208.569 149.202C208.569 148.642 208.821 148.222 209.311 147.886C208.947 147.466 208.723 146.934 208.723 146.318C208.723 144.918 209.871 143.924 211.355 143.924C212.027 143.924 212.629 144.134 213.077 144.484L214.029 143.658L214.533 144.288L213.595 145.072C213.833 145.45 213.973 145.884 213.973 146.374C213.973 147.788 212.825 148.726 211.369 148.726C210.837 148.726 210.347 148.6 209.941 148.376C209.661 148.53 209.493 148.782 209.493 149.076C209.493 149.776 210.361 149.944 211.355 150.098ZM211.369 144.736C210.389 144.736 209.675 145.394 209.675 146.346C209.675 147.242 210.319 147.928 211.355 147.928C212.391 147.928 213.007 147.256 213.007 146.346C213.007 145.394 212.363 144.736 211.369 144.736ZM211.439 153.094C212.657 153.094 213.385 152.758 213.385 152.086C213.385 151.246 212.293 151.12 211.145 150.938C210.837 150.896 210.515 150.84 210.221 150.77L209.283 151.68C209.269 151.75 209.269 151.778 209.269 151.806C209.269 152.786 210.263 153.094 211.439 153.094ZM221.504 147.144C221.504 147.34 221.49 147.578 221.462 147.746H216.408C216.436 149.258 217.276 150.168 218.634 150.168C219.39 150.168 219.992 149.972 220.622 149.3L221.294 149.888C220.482 150.742 219.684 151.05 218.62 151.05C216.52 151.05 215.442 149.482 215.442 147.522C215.442 145.576 216.506 143.924 218.508 143.924C220.622 143.924 221.504 145.576 221.504 147.144ZM218.508 144.736C217.262 144.736 216.492 145.716 216.408 146.934H220.58C220.58 146.906 220.566 146.836 220.566 146.71C220.496 145.59 219.782 144.736 218.508 144.736ZM230.579 143.924C232.231 143.924 232.917 145.016 232.917 146.626V150.938H231.951V146.892C231.951 146.304 231.951 144.778 230.439 144.778C229.039 144.778 228.661 146.066 228.661 147.62V150.938H227.695V146.948C227.695 145.8 227.345 144.778 226.141 144.778C224.797 144.778 224.419 146.052 224.419 147.62V150.938H223.453L223.439 144.036H224.377V144.876C224.811 144.19 225.511 143.924 226.281 143.924C227.247 143.924 227.961 144.344 228.311 145.254C228.759 144.372 229.529 143.924 230.579 143.924ZM240.795 147.144C240.795 147.34 240.781 147.578 240.753 147.746H235.699C235.727 149.258 236.567 150.168 237.925 150.168C238.681 150.168 239.283 149.972 239.913 149.3L240.585 149.888C239.773 150.742 238.975 151.05 237.911 151.05C235.811 151.05 234.733 149.482 234.733 147.522C234.733 145.576 235.797 143.924 237.799 143.924C239.913 143.924 240.795 145.576 240.795 147.144ZM237.799 144.736C236.553 144.736 235.783 145.716 235.699 146.934H239.871C239.871 146.906 239.857 146.836 239.857 146.71C239.787 145.59 239.073 144.736 237.799 144.736ZM245.992 143.924C247.476 143.924 248.246 144.876 248.246 146.71V150.938H247.28V146.948C247.28 145.464 246.804 144.778 245.768 144.778C244.466 144.778 243.71 145.898 243.71 147.844V150.938H242.744V144.036H243.71V145.044C244.158 144.344 244.998 143.924 245.992 143.924ZM253.489 150.014L253.503 150.868C253.139 150.98 252.775 151.05 252.453 151.05C251.529 151.05 250.857 150.532 250.857 149.314V144.848H249.709V144.036H250.857V142.244L251.823 141.516V144.036H253.489V144.848H251.823V149.188C251.823 149.86 252.131 150.168 252.677 150.168C252.915 150.168 253.181 150.112 253.489 150.014ZM261.866 151.05C259.892 151.05 258.562 149.524 258.562 147.48C258.562 145.436 259.892 143.924 261.866 143.924C263.826 143.924 265.184 145.436 265.184 147.48C265.184 149.51 263.84 151.05 261.866 151.05ZM261.866 150.196C263.35 150.196 264.218 149.02 264.218 147.48C264.218 145.912 263.336 144.778 261.866 144.778C260.382 144.778 259.528 145.926 259.528 147.48C259.528 149.048 260.396 150.196 261.866 150.196ZM268.75 150.938L265.936 144.036H266.986L269.156 149.706L271.34 144.036H272.404L269.576 150.938H268.75ZM279.254 147.144C279.254 147.34 279.24 147.578 279.212 147.746H274.158C274.186 149.258 275.026 150.168 276.384 150.168C277.14 150.168 277.742 149.972 278.372 149.3L279.044 149.888C278.232 150.742 277.434 151.05 276.37 151.05C274.27 151.05 273.192 149.482 273.192 147.522C273.192 145.576 274.256 143.924 276.258 143.924C278.372 143.924 279.254 145.576 279.254 147.144ZM276.258 144.736C275.012 144.736 274.242 145.716 274.158 146.934H278.33C278.33 146.906 278.316 146.836 278.316 146.71C278.246 145.59 277.532 144.736 276.258 144.736ZM284.213 143.924C284.633 143.924 285.025 144.008 285.403 144.218L284.927 145.002C284.605 144.862 284.311 144.792 284.017 144.792C282.953 144.792 282.169 145.59 282.169 147.088V150.938H281.203V144.036H282.169V145.072C282.673 144.162 283.513 143.924 284.213 143.924ZM288.498 151.05C287.14 151.05 286.034 150.35 285.67 149.244L286.482 148.88C286.734 149.594 287.406 150.196 288.484 150.196C289.422 150.196 290.024 149.734 290.024 149.006C290.024 147.172 286.048 148.32 286.048 145.87C286.048 144.666 287.028 143.924 288.414 143.924C289.52 143.924 290.416 144.386 290.892 145.366L290.122 145.786C289.786 145.17 289.24 144.778 288.386 144.778C287.532 144.778 286.986 145.128 286.986 145.73C286.986 147.368 290.976 146.332 290.976 148.95C290.976 150.35 289.828 151.05 288.498 151.05ZM292.85 142.608V141.18H293.97V142.608H292.85ZM292.934 150.938V144.036H293.9V150.938H292.934ZM298.827 150.098C300.199 150.308 301.823 150.504 301.823 152.002C301.823 153.304 300.605 153.906 298.869 153.906C296.951 153.906 295.789 153.15 295.789 151.778C295.789 151.638 295.803 151.554 295.817 151.47L296.937 150.518C296.405 150.28 296.041 149.888 296.041 149.202C296.041 148.642 296.293 148.222 296.783 147.886C296.419 147.466 296.195 146.934 296.195 146.318C296.195 144.918 297.343 143.924 298.827 143.924C299.499 143.924 300.101 144.134 300.549 144.484L301.501 143.658L302.005 144.288L301.067 145.072C301.305 145.45 301.445 145.884 301.445 146.374C301.445 147.788 300.297 148.726 298.841 148.726C298.309 148.726 297.819 148.6 297.413 148.376C297.133 148.53 296.965 148.782 296.965 149.076C296.965 149.776 297.833 149.944 298.827 150.098ZM298.841 144.736C297.861 144.736 297.147 145.394 297.147 146.346C297.147 147.242 297.791 147.928 298.827 147.928C299.863 147.928 300.479 147.256 300.479 146.346C300.479 145.394 299.835 144.736 298.841 144.736ZM298.911 153.094C300.129 153.094 300.857 152.758 300.857 152.086C300.857 151.246 299.765 151.12 298.617 150.938C298.309 150.896 297.987 150.84 297.693 150.77L296.755 151.68C296.741 151.75 296.741 151.778 296.741 151.806C296.741 152.786 297.735 153.094 298.911 153.094ZM306.996 143.924C308.48 143.924 309.25 144.876 309.25 146.71V150.938H308.284V146.948C308.284 145.45 307.808 144.778 306.772 144.778C305.456 144.778 304.714 145.856 304.714 147.76V150.938H303.748V141.18H304.714V145.044C305.162 144.344 306.002 143.924 306.996 143.924ZM314.493 150.014L314.507 150.868C314.143 150.98 313.779 151.05 313.457 151.05C312.533 151.05 311.861 150.532 311.861 149.314V144.848H310.713V144.036H311.861V142.244L312.827 141.516V144.036H314.493V144.848H312.827V149.188C312.827 149.86 313.135 150.168 313.681 150.168C313.919 150.168 314.185 150.112 314.493 150.014Z" fill="#001727"/>
</svg>
