<?xml version="1.0" encoding="UTF-8"?>
<svg xmlns="http://www.w3.org/2000/svg" width="215" height="251" viewBox="0 0 215 251" fill="none">
  <path d="M175.905 250.419C171.246 250.419 166.909 248.107 164.303 244.238L116.491 173.176C113.3 168.437 113.3 162.302 116.491 157.563L134.158 131.309L214.3 250.419H175.905Z" fill="white"></path>
  <path d="M84.2703 125.208L0 250.386H38.3982C43.0577 250.386 47.3947 248.076 50.0001 244.211L130.04 125.206L50.015 6.23453C47.4164 2.36585 43.0856 0.059895 38.4329 0.0530888L0.0346876 0L84.2703 125.208Z" fill="#3EBDAB"></path>
  <path d="M175.905 0C171.246 0 166.909 2.31276 164.303 6.18144L116.491 77.2435C113.3 81.9827 113.3 88.1178 116.491 92.8564L134.158 119.111L214.3 0H175.905Z" fill="white"></path>
</svg>
