<?xml version="1.0" encoding="UTF-8"?>
<svg xmlns="http://www.w3.org/2000/svg" width="64" height="64" viewBox="0 0 64 64" fill="none">
  <path d="M6.00195 1.99902H58.002C58.002 1.99902 62.002 1.99902 62.002 5.99902V57.999C62.002 57.999 62.002 61.999 58.002 61.999H6.00195C6.00195 61.999 2.00195 61.999 2.00195 57.999V5.99902C2.00195 5.99902 2.00195 1.99902 6.00195 1.99902Z" stroke="#001727" stroke-width="2.67" stroke-linecap="round" stroke-linejoin="round"></path>
  <path d="M34.668 41.999H50.0013" stroke="#001727" stroke-width="2.67" stroke-linecap="round" stroke-linejoin="round"></path>
  <path d="M14.002 41.999H21.3353" stroke="#001727" stroke-width="2.67" stroke-linecap="round" stroke-linejoin="round"></path>
  <path fill-rule="evenodd" clip-rule="evenodd" d="M34.6693 41.9987C34.6693 43.3172 34.2783 44.6062 33.5457 45.7025C32.8132 46.7988 31.772 47.6533 30.5538 48.1579C29.3357 48.6625 27.9952 48.7945 26.702 48.5373C25.4088 48.28 24.2209 47.6451 23.2886 46.7127C22.3562 45.7804 21.7213 44.5925 21.464 43.2993C21.2068 42.0061 21.3388 40.6656 21.8434 39.4475C22.348 38.2293 23.2025 37.1881 24.2988 36.4556C25.3951 35.723 26.6841 35.332 28.0026 35.332C29.7707 35.332 31.4664 36.0344 32.7167 37.2847C33.9669 38.5349 34.6693 40.2306 34.6693 41.9987Z" stroke="#001727" stroke-width="2.67" stroke-linecap="round" stroke-linejoin="round"></path>
  <path d="M37.3353 21.999H14.002" stroke="#001727" stroke-width="2.67" stroke-linecap="round" stroke-linejoin="round"></path>
  <path fill-rule="evenodd" clip-rule="evenodd" d="M50.6693 21.9987C50.6693 20.6802 50.2783 19.3912 49.5457 18.2949C48.8132 17.1986 47.772 16.3441 46.5538 15.8395C45.3357 15.3349 43.9952 15.2029 42.702 15.4601C41.4088 15.7174 40.2209 16.3523 39.2886 17.2847C38.3562 18.217 37.7213 19.4049 37.464 20.6981C37.2068 21.9913 37.3388 23.3318 37.8434 24.5499C38.348 25.7681 39.2025 26.8093 40.2988 27.5418C41.3951 28.2744 42.6841 28.6654 44.0026 28.6654C45.7707 28.6654 47.4664 27.963 48.7167 26.7127C49.9669 25.4625 50.6693 23.7668 50.6693 21.9987Z" stroke="#001727" stroke-width="2.67" stroke-linecap="round" stroke-linejoin="round"></path>
</svg>
