<?xml version="1.0" encoding="UTF-8"?>
<svg xmlns="http://www.w3.org/2000/svg" width="64" height="64" viewBox="0 0 64 64" fill="none">
  <path d="M47.5962 30.1495C47.8504 29.7362 47.9898 29.2626 48 28.7775C48.0102 28.2923 47.8908 27.8133 47.6541 27.3897C47.4175 26.966 47.0721 26.6132 46.6536 26.3676C46.2352 26.1219 45.7587 25.9923 45.2735 25.9922H36.0015V1.99219L16.4068 33.8375C16.1524 34.2506 16.0128 34.7241 16.0026 35.2092C15.9923 35.6943 16.1117 36.1733 16.3485 36.5967C16.5852 37.0202 16.9307 37.3728 17.3493 37.6181C17.7679 37.8635 18.2443 37.9926 18.7295 37.9922H28.0015V61.9922L47.5962 30.1495Z" stroke="#001727" stroke-width="2.67" stroke-linecap="round" stroke-linejoin="round"></path>
</svg>
