<?xml version="1.0" encoding="UTF-8"?>
<svg xmlns="http://www.w3.org/2000/svg" width="64" height="64" viewBox="0 0 64 64" fill="none">
  <g clip-path="url(#clip0_4017_2579)">
    <path d="M32.0059 38H36.0059" stroke="#001727" stroke-width="2.67" stroke-linecap="round" stroke-linejoin="round"></path>
    <path d="M44.0059 38H48.0059" stroke="#001727" stroke-width="2.67" stroke-linecap="round" stroke-linejoin="round"></path>
    <path d="M18.0059 39C17.4536 39 17.0059 38.5523 17.0059 38C17.0059 37.4477 17.4536 37 18.0059 37" stroke="#001727" stroke-width="2.67"></path>
    <path d="M18.0059 39C18.5582 39 19.0059 38.5523 19.0059 38C19.0059 37.4477 18.5582 37 18.0059 37" stroke="#001727" stroke-width="2.67"></path>
    <path d="M18.0059 55C17.4536 55 17.0059 54.5523 17.0059 54C17.0059 53.4477 17.4536 53 18.0059 53" stroke="#001727" stroke-width="2.67"></path>
    <path d="M18.0059 55C18.5582 55 19.0059 54.5523 19.0059 54C19.0059 53.4477 18.5582 53 18.0059 53" stroke="#001727" stroke-width="2.67"></path>
    <path d="M32.0059 54H36.0059" stroke="#001727" stroke-width="2.67" stroke-linecap="round" stroke-linejoin="round"></path>
    <path d="M44.0059 54H48.0059" stroke="#001727" stroke-width="2.67" stroke-linecap="round" stroke-linejoin="round"></path>
    <path d="M56.0059 38C56.0059 40.1216 55.1629 42.1565 53.6627 43.6568C52.1624 45.1571 50.1275 46 48.0059 46H16.0059C13.8841 46 11.8493 45.1571 10.349 43.6568C8.84871 42.1565 8.00586 40.1216 8.00586 38C8.00586 35.8784 8.84871 33.8435 10.349 32.3432C11.8493 30.8429 13.8841 30 16.0059 30H48.0059C50.1275 30 52.1624 30.8429 53.6627 32.3432C55.1629 33.8435 56.0059 35.8784 56.0059 38Z" stroke="#001727" stroke-width="2.67" stroke-linecap="round" stroke-linejoin="round"></path>
    <path d="M56.0059 54C56.0059 56.1216 55.1629 58.1565 53.6627 59.6568C52.1624 61.1571 50.1275 62 48.0059 62H16.0059C13.8841 62 11.8493 61.1571 10.349 59.6568C8.84871 58.1565 8.00586 56.1216 8.00586 54C8.00586 51.8784 8.84871 49.8435 10.349 48.3432C11.8493 46.8429 13.8841 46 16.0059 46H48.0059C50.1275 46 52.1624 46.8429 53.6627 48.3432C55.1629 49.8435 56.0059 51.8784 56.0059 54Z" stroke="#001727" stroke-width="2.67" stroke-linecap="round" stroke-linejoin="round"></path>
    <path d="M61.6595 32.0669C62.1088 30.1589 62.1211 28.1741 61.6955 26.2606C61.2699 24.3471 60.4171 22.5546 59.2011 21.0171C57.9853 19.4795 56.4376 18.2367 54.6736 17.3815C52.9099 16.5263 50.9755 16.0809 49.0152 16.0785C46.3824 16.0777 43.8125 16.882 41.6499 18.3835C41.1411 15.6072 40.0501 12.9701 38.4485 10.6459C36.8472 8.32173 34.7715 6.36312 32.3584 4.89901C29.9453 3.43493 27.2496 2.49857 24.4484 2.15159C21.6473 1.80461 18.8044 2.05488 16.107 2.88595C13.4096 3.71699 10.9188 5.10995 8.79866 6.97315C6.6785 8.83632 4.97701 11.1275 3.80626 13.6957C2.63549 16.264 2.022 19.0511 2.00617 21.8736C1.99035 24.6961 2.57254 27.4899 3.71442 30.0712" stroke="#001727" stroke-width="2.67" stroke-linecap="round" stroke-linejoin="round"></path>
  </g>
  <defs>
    <clipPath id="clip0_4017_2579">
      <rect width="64" height="64" fill="white"></rect>
    </clipPath>
  </defs>
</svg>
