<?xml version="1.0" encoding="UTF-8"?>
<svg xmlns="http://www.w3.org/2000/svg" width="107" height="40" viewBox="0 0 107 40" fill="none">
  <path d="M16.6616 0.00195312H13.3988L0.605469 31.9565H5.81279C6.43109 31.9565 6.98408 31.5717 7.19887 30.9919L15.5528 8.44557L23.8557 30.9892C24.0698 31.5704 24.6234 31.9565 25.2428 31.9565H30.4479L18.0939 0.972702C17.8601 0.386535 17.2927 0.00195312 16.6616 0.00195312Z" fill="white"></path>
  <path d="M32.6777 0.00195312H41.9376C52.527 0.00195312 58.5778 5.86961 58.5778 16.2295C58.5778 26.4063 52.7101 31.9529 41.8918 31.9529H32.6777V0.00195312ZM41.3418 26.6811C49.4096 26.6811 52.8018 23.5183 52.8018 16.0001C52.8018 8.61971 49.4095 5.27328 41.846 5.27328H38.4079V26.681L41.3418 26.6811Z" fill="white"></path>
  <path d="M85.3164 0.00195312H95.7684C102.919 0.00195312 106.633 3.119 106.633 9.2156C106.633 15.4043 102.828 18.7049 95.7684 18.7049H91.0008V31.9529H85.3164V0.00195312ZM95.1722 13.4332C99.2064 13.4332 100.902 12.1957 100.902 9.30766C100.902 6.41965 99.2523 5.27337 95.1722 5.27337H91.0009V13.4332H95.1722Z" fill="white"></path>
  <path d="M3.3084 39.0078H1.69321L1.35718 39.9223H0.685547L2.26035 35.8867H2.74082L4.31563 39.9223H3.63853L3.3084 39.0078ZM3.10586 38.4461L2.50371 36.79L1.89566 38.4461H3.10586Z" fill="white"></path>
  <path d="M4.9668 37.9033C4.9668 36.6064 5.71381 35.8076 6.89449 35.8076C7.73409 35.8076 8.34805 36.2068 8.64317 36.9655L8.07012 37.1854C7.87896 36.6586 7.47388 36.398 6.89449 36.398C6.0667 36.398 5.58623 36.9365 5.58623 37.8978C5.58623 38.8646 6.0667 39.4086 6.88311 39.4086C7.46797 39.4086 7.87896 39.1366 8.07012 38.6039L8.65455 38.8242C8.35934 39.588 7.72818 39.9994 6.88311 39.9994C5.70791 39.9994 4.9668 39.1947 4.9668 37.9033Z" fill="white"></path>
  <path d="M9.64453 37.9033C9.64453 36.6064 10.3915 35.8076 11.5722 35.8076C12.4118 35.8076 13.0258 36.2068 13.3209 36.9655L12.7479 37.1854C12.5567 36.6586 12.1516 36.398 11.5722 36.398C10.7444 36.398 10.264 36.9365 10.264 37.8978C10.264 38.8646 10.7444 39.4086 11.5608 39.4086C12.1457 39.4086 12.5567 39.1366 12.7479 38.6039L13.3323 38.8242C13.0371 39.588 12.4059 39.9994 11.5608 39.9994C10.3856 39.9994 9.64453 39.1947 9.64453 37.9033Z" fill="white"></path>
  <path d="M14.6484 35.8868H17.3172V36.4603H15.2679V37.566H17.1496V38.1391H15.2679V39.3493H17.3172V39.9223H14.6484V35.8868Z" fill="white"></path>
  <path d="M18.7949 35.8868H19.4144V39.3493H21.1744V39.9223H18.7949V35.8868Z" fill="white"></path>
  <path d="M22.3008 35.8868H24.9699V36.4603H22.9201V37.566H24.8019V38.1391H22.9201V39.3493H24.9699V39.9223H22.3008V35.8868Z" fill="white"></path>
  <path d="M28.4342 39.9223L27.4498 38.2085H26.8303V39.9223H26.2168V35.8867H27.4788C28.411 35.8867 28.8392 36.3095 28.8392 37.0333C28.8392 37.6063 28.5672 37.9828 28.0636 38.1331L29.158 39.9222L28.4342 39.9223ZM27.4152 37.641C27.9419 37.641 28.2144 37.4733 28.2144 37.0447C28.2144 36.6165 27.9419 36.4603 27.4152 36.4603H26.8303V37.641H27.4152Z" fill="white"></path>
  <path d="M32.5447 39.0078H30.9295L30.5935 39.9223H29.9219L31.4967 35.8867H31.9776L33.5524 39.9223H32.8749L32.5447 39.0078ZM32.3422 38.4461L31.74 36.79L31.132 38.4461H32.3422Z" fill="white"></path>
  <path d="M34.7711 36.4602H33.4688V35.8867H36.7051V36.4602H35.3969V39.9222H34.7712L34.7711 36.4602Z" fill="white"></path>
  <path d="M37.8242 35.8867H38.4436V39.9223H37.8242V35.8867Z" fill="white"></path>
  <path d="M42.8461 35.8867V39.9223H42.1977L40.4085 36.9521V39.9223H39.7891V35.8867H40.4316L42.2262 38.8397V35.8867H42.8461Z" fill="white"></path>
  <path d="M47.4964 37.7761V39.924H47.0451L46.9638 39.449C46.7322 39.8023 46.2808 39.9994 45.725 39.9994C44.5843 39.9994 43.7969 39.1539 43.7969 37.8978C43.7969 36.699 44.5089 35.8076 45.7305 35.8076C46.5642 35.8076 47.184 36.2245 47.4678 36.9655L46.9002 37.1854C46.709 36.67 46.3099 36.398 45.725 36.398C44.8795 36.398 44.4163 36.9655 44.4163 37.886C44.4163 38.8242 44.8854 39.4086 45.7654 39.4086C46.4311 39.4086 46.8884 39.0785 46.8884 38.4073V38.3319H45.962V37.776L47.4964 37.7761Z" fill="white"></path>
  <path d="M52.8555 36.4602H51.5527V35.8867H54.7891V36.4602H53.4804V39.9222H52.8555V36.4602Z" fill="white"></path>
  <path d="M58.0103 39.9223L57.0263 38.2085H56.4065V39.9223H55.793V35.8867H57.0549C57.9872 35.8867 58.4158 36.3095 58.4158 37.0333C58.4158 37.6063 58.1434 37.9828 57.6398 38.1331L58.7341 39.9222L58.0103 39.9223ZM56.9913 37.641C57.518 37.641 57.7901 37.4733 57.7901 37.0447C57.7901 36.6165 57.518 36.4603 56.9913 36.4603H56.4064V37.641H56.9913Z" fill="white"></path>
  <path d="M62.1229 39.0078H60.5077L60.1716 39.9223H59.5L61.0748 35.8867H61.5557L63.1305 39.9223H62.453L62.1229 39.0078ZM61.9203 38.4461L61.3182 36.79L60.7101 38.4461H61.9203Z" fill="white"></path>
  <path d="M67.0609 35.8867V39.9223H66.4125L64.6233 36.9521V39.9223H64.0039V35.8867H64.6464L66.4415 38.8397V35.8867H67.0609Z" fill="white"></path>
  <path d="M68.2559 38.8055L68.8753 38.6552C68.933 39.1474 69.2749 39.4426 69.7726 39.4426C70.2357 39.4426 70.5078 39.2051 70.5078 38.8404C70.5078 38.5103 70.2879 38.3191 69.6509 38.0703C68.8172 37.752 68.522 37.4509 68.522 36.8833C68.522 36.2408 69.0083 35.8125 69.738 35.8125C70.2702 35.8125 70.693 36.0496 70.9423 36.5186L70.4269 36.8369C70.2761 36.53 70.0159 36.3624 69.7204 36.3624C69.3848 36.3624 69.1414 36.5881 69.1414 36.8659C69.1414 37.167 69.3617 37.335 69.981 37.5725C70.8552 37.9081 71.1275 38.2209 71.1275 38.7882C71.1275 39.5179 70.589 39.9924 69.7607 39.9924C68.9733 39.9924 68.3712 39.5234 68.2559 38.8055Z" fill="white"></path>
  <path d="M72.2462 35.8868H75.0657V36.4603H72.8655V37.566H74.7995V38.1391H72.8655V39.9223H72.2461L72.2462 35.8868Z" fill="white"></path>
  <path d="M75.5938 37.9082C75.5938 36.6462 76.3639 35.8125 77.4987 35.8125C78.6335 35.8125 79.3977 36.6462 79.3977 37.9082C79.3977 39.1647 78.6276 39.9984 77.4987 39.9984C76.3639 39.9984 75.5938 39.1647 75.5938 37.9082ZM78.7779 37.9082C78.7779 36.9818 78.2802 36.4028 77.4987 36.4028C76.7172 36.4028 76.2132 36.9759 76.2132 37.9082C76.2132 38.8345 76.7172 39.4076 77.4987 39.4076C78.2802 39.4076 78.7779 38.8286 78.7779 37.9082Z" fill="white"></path>
  <path d="M82.567 39.9223L81.5829 38.2085H80.9631V39.9223H80.3496V35.8867H81.6116C82.5439 35.8867 82.9725 36.3095 82.9725 37.0333C82.9725 37.6063 82.7 37.9828 82.1964 38.1331L83.2908 39.9222L82.567 39.9223ZM81.5479 37.641C82.0747 37.641 82.3467 37.4733 82.3467 37.0447C82.3467 36.6165 82.0747 36.4603 81.5479 36.4603H80.963V37.641H81.5479Z" fill="white"></path>
  <path d="M88.3634 35.8867V39.9223H87.7439V36.7436L86.6378 39.5749H86.0356L84.9358 36.7436V39.9223H84.3164V35.8867H85.2079L86.3372 38.8629L87.4716 35.8867H88.3634Z" fill="white"></path>
  <path d="M91.7439 39.0078H90.1288L89.7927 39.9223H89.1211L90.6959 35.8867H91.1764L92.7512 39.9223H92.0741L91.7439 39.0078ZM91.5414 38.4461L90.9393 36.79L90.3312 38.4461H91.5414Z" fill="white"></path>
  <path d="M93.9708 36.4602H92.668V35.8867H95.9044V36.4602H94.5957V39.9222H93.9708V36.4602Z" fill="white"></path>
  <path d="M97.0234 35.8867H97.6429V39.9223H97.0234V35.8867Z" fill="white"></path>
  <path d="M98.8203 37.9082C98.8203 36.6462 99.5904 35.8125 100.725 35.8125C101.86 35.8125 102.624 36.6462 102.624 37.9082C102.624 39.1647 101.854 39.9984 100.725 39.9984C99.5904 39.9984 98.8203 39.1647 98.8203 37.9082ZM102.004 37.9082C102.004 36.9818 101.507 36.4028 100.725 36.4028C99.9437 36.4028 99.4397 36.9759 99.4397 37.9082C99.4397 38.8345 99.9437 39.4076 100.725 39.4076C101.507 39.4076 102.004 38.8286 102.004 37.9082Z" fill="white"></path>
  <path d="M106.633 35.8867V39.9223H105.985L104.196 36.9521V39.9223H103.576V35.8867H104.219L106.014 38.8397V35.8867H106.633Z" fill="white"></path>
  <path d="M77.9964 31.9542C77.4018 31.9542 76.8484 31.6591 76.516 31.1654L70.4147 22.0974C70.0076 21.4927 70.0076 20.7098 70.4147 20.1051L72.6692 16.7549L82.8959 31.9542H77.9964Z" fill="white"></path>
  <path d="M66.3042 15.9764L55.5508 31.9499H60.4506C61.0452 31.9499 61.5987 31.6552 61.9311 31.162L72.1447 15.9762L61.933 0.794591C61.6014 0.300922 61.0488 0.00666645 60.4551 0.00579792L55.5552 -0.000976562L66.3042 15.9764Z" fill="#3EBDAB"></path>
  <path d="M77.9964 -0.000976562C77.4018 -0.000976562 76.8484 0.294148 76.516 0.787817L70.4147 9.85581C70.0076 10.4606 70.0076 11.2435 70.4147 11.8481L72.6692 15.1984L82.8959 -0.000976562H77.9964Z" fill="white"></path>
</svg>
