<?xml version="1.0" encoding="UTF-8"?>
<svg xmlns="http://www.w3.org/2000/svg" width="64" height="64" viewBox="0 0 64 64" fill="none">
  <g clip-path="url(#clip0_4017_7237)">
    <path d="M45.1226 61.7931V52.7848C50.3024 52.8141 52.9386 52.4397 54.7573 50.6184C57.0829 48.2928 56.8626 38.4749 56.8626 38.4749C56.8626 38.4749 59.0741 38.5573 60.7442 38.4909C61.0362 38.4789 61.3221 38.4011 61.58 38.2632C61.8378 38.1253 62.0613 37.9309 62.2336 37.6944C62.4706 37.1861 62.5626 36.6219 62.4989 36.0643C62.8016 31.9016 56.9397 24.7598 56.9397 22.6863C56.9397 9.6508 44.6317 2.20117 33.457 2.20117" stroke="white" stroke-width="2.66667" stroke-linecap="round" stroke-linejoin="round"></path>
    <path d="M19.2266 52.7266V61.7959" stroke="white" stroke-width="2.66667" stroke-linecap="round" stroke-linejoin="round"></path>
    <path d="M21.0731 46.2459C26.0818 46.2459 30.1423 36.3861 30.1423 24.2235C30.1423 12.0609 26.0818 2.20117 21.0731 2.20117C16.0643 2.20117 12.0039 12.0609 12.0039 24.2235C12.0039 36.3861 16.0643 46.2459 21.0731 46.2459Z" stroke="white" stroke-width="2.66667" stroke-linecap="round" stroke-linejoin="round"></path>
    <path d="M25.5996 32.0777C36.1328 25.9964 42.6413 17.5501 40.137 13.2124C37.6325 8.87472 27.0637 10.2882 16.5305 16.3695C5.99738 22.4508 -0.51122 30.8972 1.99315 35.2348C4.49751 39.5724 15.0665 38.1591 25.5996 32.0777Z" stroke="white" stroke-width="2.66667" stroke-linecap="round" stroke-linejoin="round"></path>
    <path d="M40.137 35.2366C42.6413 30.899 36.1328 22.4528 25.5996 16.3715C15.0665 10.2902 4.49753 8.87666 1.99315 13.2144C-0.511219 17.5521 5.99737 25.9983 16.5305 32.0795C27.0637 38.1609 37.6325 39.5745 40.137 35.2366Z" stroke="white" stroke-width="2.66667" stroke-linecap="round" stroke-linejoin="round"></path>
    <path d="M21.0661 24.8899C20.6995 24.8899 20.4023 24.5928 20.4023 24.2262C20.4023 23.8597 20.6995 23.5625 21.0661 23.5625" stroke="white" stroke-width="2.66667"></path>
    <path d="M21.0742 24.8899C21.4408 24.8899 21.738 24.5928 21.738 24.2262C21.738 23.8597 21.4408 23.5625 21.0742 23.5625" stroke="white" stroke-width="2.66667"></path>
  </g>
  <defs>
    <clipPath id="clip0_4017_7237">
      <rect width="64" height="64" fill="white"></rect>
    </clipPath>
  </defs>
</svg>
