<?xml version="1.0" encoding="UTF-8"?>
<svg xmlns="http://www.w3.org/2000/svg" width="64" height="64" viewBox="0 0 64 64" fill="none">
  <g clip-path="url(#clip0_4017_7209)">
    <path d="M53.2279 39.3672L61.5692 53.8125C61.9372 54.4472 61.6439 54.8792 60.9212 54.7459L51.9666 53.2312L48.8626 61.7645C48.6119 62.4525 48.0999 62.5005 47.7266 61.8712L39.7266 48.3432" stroke="white" stroke-width="2.66667" stroke-linecap="round" stroke-linejoin="round"></path>
    <path d="M10.7659 39.3672L2.42461 53.8125C2.05661 54.4472 2.34994 54.8792 3.07261 54.7459L12.0273 53.2312L15.1339 61.7645C15.3846 62.4552 15.8966 62.5005 16.2699 61.8712L24.2699 48.3592" stroke="white" stroke-width="2.66667" stroke-linecap="round" stroke-linejoin="round"></path>
    <path d="M53.3304 23.0185C53.3309 21.5321 52.885 20.0799 52.0506 18.8499C51.2162 17.6199 50.0316 16.6688 48.6504 16.1198C49.238 14.7551 49.4026 13.2454 49.1228 11.7861C48.843 10.3268 48.1318 8.98508 47.0811 7.93442C46.0305 6.88376 44.6887 6.17254 43.2294 5.89277C41.7702 5.613 40.2605 5.77755 38.8958 6.36513C38.3461 4.98479 37.395 3.80111 36.1654 2.9672C34.9357 2.13329 33.4842 1.6875 31.9984 1.6875C30.5127 1.6875 29.0611 2.13329 27.8315 2.9672C26.6019 3.80111 25.6507 4.98479 25.1011 6.36513C23.736 5.77506 22.2252 5.60858 20.7643 5.88724C19.3035 6.16591 17.9601 6.87688 16.908 7.92803C15.856 8.97918 15.144 10.3221 14.8641 11.7826C14.5842 13.2432 14.7495 14.7542 15.3384 16.1198C13.957 16.6684 12.7722 17.6191 11.9374 18.8489C11.1026 20.0787 10.6563 21.5308 10.6562 23.0171C10.6562 24.5035 11.1026 25.9556 11.9374 27.1853C12.7722 28.4151 13.957 29.3659 15.3384 29.9145C14.7508 31.2792 14.5863 32.7889 14.8661 34.2481C15.1458 35.7074 15.8571 37.0492 16.9077 38.0998C17.9584 39.1505 19.3001 39.8617 20.7594 40.1415C22.2187 40.4213 23.7284 40.2567 25.0931 39.6691C25.6417 41.0505 26.5925 42.2354 27.8222 43.0702C29.052 43.905 30.5041 44.3513 31.9904 44.3513C33.4768 44.3513 34.9289 43.905 36.1586 43.0702C37.3884 42.2354 38.3392 41.0505 38.8878 39.6691C40.2525 40.2567 41.7622 40.4213 43.2214 40.1415C44.6807 39.8617 46.0225 39.1505 47.0731 38.0998C48.1238 37.0492 48.835 35.7074 49.1148 34.2481C49.3946 32.7889 49.23 31.2792 48.6424 29.9145C50.0251 29.3675 51.2115 28.4175 52.0474 27.1878C52.8834 25.958 53.3304 24.5054 53.3304 23.0185Z" stroke="white" stroke-width="2.66667" stroke-linecap="round" stroke-linejoin="round"></path>
    <path d="M42.6641 16.3555L30.0801 28.9421C29.8943 29.128 29.6738 29.2754 29.4311 29.376C29.1883 29.4766 28.9281 29.5284 28.6654 29.5284C28.4026 29.5284 28.1425 29.4766 27.8997 29.376C27.657 29.2754 27.4365 29.128 27.2507 28.9421L22.6641 24.3555" stroke="white" stroke-width="2.66667" stroke-linecap="round" stroke-linejoin="round"></path>
  </g>
  <defs>
    <clipPath id="clip0_4017_7209">
      <rect width="64" height="64" fill="white"></rect>
    </clipPath>
  </defs>
</svg>
