<?xml version="1.0" encoding="UTF-8"?>
<svg xmlns="http://www.w3.org/2000/svg" width="64" height="64" viewBox="0 0 64 64" fill="none">
  <path d="M47.5942 30.1495C47.8485 29.7362 47.9879 29.2626 47.9981 28.7775C48.0082 28.2923 47.8888 27.8133 47.6522 27.3897C47.4155 26.966 47.0701 26.6132 46.6517 26.3676C46.2332 26.1219 45.7568 25.9923 45.2716 25.9922H35.9996V1.99219L16.4049 33.8375C16.1504 34.2506 16.0109 34.7241 16.0006 35.2092C15.9903 35.6943 16.1098 36.1733 16.3465 36.5967C16.5832 37.0202 16.9288 37.3728 17.3473 37.6181C17.7659 37.8635 18.2424 37.9926 18.7276 37.9922H27.9996V61.9922L47.5942 30.1495Z" stroke="white" stroke-width="2.67" stroke-linecap="round" stroke-linejoin="round"></path>
</svg>
