<?xml version="1.0" encoding="UTF-8"?>
<svg xmlns="http://www.w3.org/2000/svg" width="64" height="64" viewBox="0 0 64 64" fill="none">
  <g clip-path="url(#clip0_4017_2643)">
    <path d="M48.3631 53.2578L36.7578 55.5805" stroke="white" stroke-width="2.67" stroke-linecap="round" stroke-linejoin="round"></path>
    <path d="M37.9014 42.416L32.424 44.7307C31.9916 44.9082 31.5277 44.9964 31.0602 44.99C30.5928 44.9836 30.1315 44.8827 29.704 44.6934C29.2707 44.4994 28.8802 44.2213 28.5552 43.8752C28.2302 43.5291 27.9772 43.122 27.8107 42.6774C27.482 41.8336 27.4745 40.8986 27.7896 40.0496C28.1047 39.2007 28.7204 38.497 29.52 38.072L34.9974 35.3387C35.5898 35.0329 36.2396 34.8545 36.9051 34.815C37.5706 34.7755 38.237 34.8758 38.8614 35.1094L50.1067 39.5414" stroke="white" stroke-width="2.67" stroke-linecap="round" stroke-linejoin="round"></path>
    <path d="M15.5078 55.6729H19.3851L26.7771 61.3129C27.1238 61.7026 27.6078 61.9431 28.1278 61.9839C28.6478 62.0246 29.1634 61.8625 29.5665 61.5316L39.8918 52.9982C40.301 52.6613 40.5627 52.1781 40.6214 51.6514C40.6802 51.1246 40.5313 50.5957 40.2065 50.1769L34.5158 43.8516" stroke="white" stroke-width="2.67" stroke-linecap="round" stroke-linejoin="round"></path>
    <path d="M28.9373 38.4616L28.3373 37.9763C27.7432 37.5393 27.0474 37.261 26.3158 37.1677C25.5842 37.0744 24.8408 37.1691 24.156 37.4429L15.5 41.1123" stroke="white" stroke-width="2.67" stroke-linecap="round" stroke-linejoin="round"></path>
    <path d="M7.33203 57.4882H12.724C13.4538 57.5276 14.1694 57.2765 14.7145 56.7898C15.2597 56.3031 15.59 55.6204 15.6334 54.8909V41.9016C15.59 41.1723 15.2596 40.4898 14.7144 40.0036C14.1691 39.5173 13.4535 39.2668 12.724 39.3069H7.33203" stroke="white" stroke-width="2.67" stroke-linecap="round" stroke-linejoin="round"></path>
    <path d="M56.6673 57.4881H51.2726C50.5431 57.5267 49.8278 57.2754 49.2828 56.7888C48.7378 56.3023 48.4073 55.62 48.3633 54.8908V41.9014C48.4073 41.1724 48.7379 40.4904 49.283 40.0043C49.8281 39.5181 50.5433 39.2674 51.2726 39.3068H56.6673" stroke="white" stroke-width="2.67" stroke-linecap="round" stroke-linejoin="round"></path>
    <path d="M30.836 2.72481C30.9433 2.50969 31.1085 2.32874 31.3129 2.20227C31.5173 2.07579 31.753 2.00879 31.9934 2.00879C32.2337 2.00879 32.4694 2.07579 32.6738 2.20227C32.8782 2.32874 33.0434 2.50969 33.1507 2.72481L35.8414 8.17014C35.9342 8.35643 36.0707 8.51751 36.2393 8.63963C36.4078 8.76175 36.6034 8.84129 36.8094 8.87148L42.844 9.74614C43.0805 9.77971 43.3028 9.87862 43.4861 10.0317C43.6694 10.1849 43.8063 10.3861 43.8814 10.6128C43.9565 10.8382 43.9664 11.0803 43.9098 11.311C43.8531 11.5418 43.7323 11.7518 43.5614 11.9168L39.1934 16.1835C39.046 16.327 38.9355 16.5041 38.8714 16.6996C38.8074 16.8951 38.7915 17.1032 38.8254 17.3061L39.8574 23.3195C39.8981 23.5545 39.8714 23.7962 39.7803 24.0166C39.6892 24.2371 39.5374 24.4271 39.3427 24.5648C39.1475 24.7049 38.917 24.7879 38.6773 24.8044C38.4375 24.8209 38.1979 24.7702 37.9854 24.6581L32.596 21.8341C32.4095 21.7369 32.2023 21.6862 31.992 21.6862C31.7817 21.6862 31.5745 21.7369 31.388 21.8341L26.0147 24.6581C25.8021 24.7702 25.5625 24.8209 25.3228 24.8044C25.083 24.7879 24.8526 24.7049 24.6574 24.5648C24.4624 24.4272 24.3103 24.2373 24.2187 24.0169C24.1272 23.7965 24.0999 23.5547 24.14 23.3195L25.172 17.3061C25.2076 17.1034 25.1928 16.895 25.1292 16.6993C25.0655 16.5036 24.9547 16.3265 24.8067 16.1835L20.4254 11.9168C20.2542 11.7519 20.1331 11.542 20.076 11.3113C20.0189 11.0806 20.0282 10.8385 20.1027 10.6128C20.1783 10.3864 20.3154 10.1855 20.4985 10.0325C20.6817 9.87943 20.9038 9.7803 21.14 9.74614L27.1747 8.87148C27.3812 8.84191 27.5774 8.76264 27.7465 8.64048C27.9156 8.51831 28.0524 8.35691 28.1454 8.17014L30.836 2.72481Z" stroke="white" stroke-width="2.67" stroke-linecap="round" stroke-linejoin="round"></path>
    <path d="M16.8586 27.0435L14.5572 25.8328C14.3707 25.7356 14.1635 25.6848 13.9532 25.6848C13.7429 25.6848 13.5357 25.7356 13.3492 25.8328L7.97322 28.6568C7.76064 28.7689 7.52104 28.8195 7.28129 28.803C7.04153 28.7865 6.81112 28.7036 6.61588 28.5635C6.42113 28.4258 6.26941 28.2357 6.17832 28.0153C6.08722 27.7949 6.06049 27.5531 6.10122 27.3181L7.13322 21.3048C7.16737 21.1021 7.15198 20.8941 7.08836 20.6986C7.02475 20.5031 6.9148 20.3259 6.76788 20.1821L2.38388 15.9155C2.21344 15.7501 2.09302 15.5401 2.03642 15.3095C1.97983 15.0788 1.98934 14.8369 2.06388 14.6115C2.13897 14.3847 2.27585 14.1835 2.45912 14.0304C2.64239 13.8773 2.86477 13.7784 3.10122 13.7448L9.13588 12.8701C9.34238 12.8406 9.5386 12.7613 9.70768 12.6391C9.87676 12.517 10.0136 12.3556 10.1066 12.1688L12.7999 6.72346C12.9074 6.50859 13.0726 6.32792 13.277 6.20169C13.4814 6.07546 13.717 6.00866 13.9572 6.00879" stroke="white" stroke-width="2.67" stroke-linecap="round" stroke-linejoin="round"></path>
    <path d="M47.1484 27.0435L49.4498 25.8328C49.6363 25.7356 49.8435 25.6848 50.0538 25.6848C50.2641 25.6848 50.4713 25.7356 50.6578 25.8328L56.0311 28.6568C56.2442 28.7688 56.4842 28.8194 56.7243 28.8029C56.9645 28.7864 57.1953 28.7035 57.3911 28.5635C57.5859 28.4258 57.7376 28.2357 57.8287 28.0153C57.9198 27.7949 57.9465 27.5531 57.9058 27.3181L56.8738 21.3048C56.8396 21.1021 56.855 20.8941 56.9186 20.6986C56.9822 20.5031 57.0922 20.3259 57.2391 20.1821L61.6231 15.9155C61.7936 15.7501 61.914 15.5401 61.9706 15.3095C62.0272 15.0788 62.0176 14.8369 61.9431 14.6115C61.868 14.3847 61.7311 14.1835 61.5479 14.0304C61.3646 13.8773 61.1422 13.7784 60.9058 13.7448L54.8711 12.8701C54.6646 12.8406 54.4684 12.7613 54.2993 12.6391C54.1302 12.517 53.9933 12.3556 53.9004 12.1688L51.2071 6.72346C51.0996 6.50859 50.9344 6.32792 50.73 6.20169C50.5256 6.07546 50.29 6.00866 50.0498 6.00879" stroke="white" stroke-width="2.67" stroke-linecap="round" stroke-linejoin="round"></path>
  </g>
  <defs>
    <clipPath id="clip0_4017_2643">
      <rect width="64" height="64" fill="white"></rect>
    </clipPath>
  </defs>
</svg>
