<?xml version="1.0" encoding="UTF-8"?>
<svg xmlns="http://www.w3.org/2000/svg" width="64" height="64" viewBox="0 0 64 64" fill="none">
  <g clip-path="url(#clip0_4017_2663)">
    <path d="M5 47C5 48.8565 5.7375 50.637 7.05025 51.9497C8.36301 53.2625 10.1435 54 12 54C13.8565 54 15.637 53.2625 16.9497 51.9497C18.2625 50.637 19 48.8565 19 47C19 46.0807 18.8189 45.1705 18.4672 44.3212C18.1154 43.4719 17.5998 42.7003 16.9497 42.0503C16.2997 41.4002 15.5281 40.8846 14.6788 40.5328C13.8295 40.1811 12.9193 40 12 40C11.0807 40 10.1705 40.1811 9.32122 40.5328C8.47194 40.8846 7.70026 41.4002 7.05025 42.0503C6.40024 42.7003 5.88463 43.4719 5.53284 44.3212C5.18106 45.1705 5 46.0807 5 47Z" stroke="white" stroke-width="2.67" stroke-linecap="round" stroke-linejoin="round"></path>
    <path d="M22 62C21.0334 60.1876 19.5923 58.6719 17.831 57.6151C16.0696 56.5583 14.0541 56 12 56C9.9459 56 7.93042 56.5583 6.16905 57.6151C4.40767 58.6719 2.96663 60.1876 2 62" stroke="white" stroke-width="2.67" stroke-linecap="round" stroke-linejoin="round"></path>
    <path d="M45 47C45 47.9193 45.1811 48.8295 45.5328 49.6788C45.8846 50.5281 46.4002 51.2997 47.0503 51.9497C47.7003 52.5998 48.4719 53.1154 49.3212 53.4672C50.1705 53.8189 51.0807 54 52 54C52.9193 54 53.8295 53.8189 54.6788 53.4672C55.5281 53.1154 56.2997 52.5998 56.9497 51.9497C57.5998 51.2997 58.1154 50.5281 58.4672 49.6788C58.8189 48.8295 59 47.9193 59 47C59 46.0807 58.8189 45.1705 58.4672 44.3212C58.1154 43.4719 57.5998 42.7003 56.9497 42.0503C56.2997 41.4002 55.5281 40.8846 54.6788 40.5328C53.8295 40.1811 52.9193 40 52 40C51.0807 40 50.1705 40.1811 49.3212 40.5328C48.4719 40.8846 47.7003 41.4002 47.0503 42.0503C46.4002 42.7003 45.8846 43.4719 45.5328 44.3212C45.1811 45.1705 45 46.0807 45 47Z" stroke="white" stroke-width="2.67" stroke-linecap="round" stroke-linejoin="round"></path>
    <path d="M62 62C61.0334 60.1876 59.5923 58.6719 57.831 57.6151C56.0696 56.5583 54.0541 56 52 56C49.9459 56 47.9304 56.5583 46.169 57.6151C44.4077 58.6719 42.9666 60.1876 42 62" stroke="white" stroke-width="2.67" stroke-linecap="round" stroke-linejoin="round"></path>
    <path d="M25 9C25 9.91925 25.1811 10.8295 25.5328 11.6788C25.8846 12.5281 26.4002 13.2997 27.0503 13.9497C27.7003 14.5998 28.4719 15.1154 29.3212 15.4672C30.1705 15.8189 31.0807 16 32 16C32.9193 16 33.8295 15.8189 34.6788 15.4672C35.5281 15.1154 36.2997 14.5998 36.9497 13.9497C37.5998 13.2997 38.1154 12.5281 38.4672 11.6788C38.8189 10.8295 39 9.91925 39 9C39 8.08075 38.8189 7.1705 38.4672 6.32122C38.1154 5.47194 37.5998 4.70026 36.9497 4.05025C36.2997 3.40024 35.5281 2.88463 34.6788 2.53284C33.8295 2.18106 32.9193 2 32 2C31.0807 2 30.1705 2.18106 29.3212 2.53284C28.4719 2.88463 27.7003 3.40024 27.0503 4.05025C26.4002 4.70026 25.8846 5.47194 25.5328 6.32122C25.1811 7.1705 25 8.08075 25 9Z" stroke="white" stroke-width="2.67" stroke-linecap="round" stroke-linejoin="round"></path>
    <path d="M40.6576 21.9987C39.5888 20.7439 38.2604 19.7362 36.764 19.0451C35.2677 18.354 33.6391 17.9961 31.9909 17.9961C30.3427 17.9961 28.7141 18.354 27.2177 19.0451C25.7214 19.7362 24.3929 20.7439 23.3242 21.9987" stroke="white" stroke-width="2.67" stroke-linecap="round" stroke-linejoin="round"></path>
    <path d="M24.1445 52.5509C29.2518 54.4981 34.8998 54.481 39.9952 52.5029" stroke="white" stroke-width="2.67" stroke-linecap="round" stroke-linejoin="round"></path>
    <path d="M16.9294 16C14.7402 18.0504 12.9952 20.5284 11.8026 23.2806C10.61 26.0328 9.99513 29.0005 9.99609 32C9.99609 32.6747 10.0361 33.3333 10.0974 34" stroke="white" stroke-width="2.67" stroke-linecap="round" stroke-linejoin="round"></path>
    <path d="M53.9023 34C53.961 33.3387 54.0036 32.6667 54.0036 32C54.0051 29.0005 53.3904 26.0326 52.1978 23.2803C51.0051 20.5281 49.2599 18.0501 47.0703 16" stroke="white" stroke-width="2.67" stroke-linecap="round" stroke-linejoin="round"></path>
  </g>
  <defs>
    <clipPath id="clip0_4017_2663">
      <rect width="64" height="64" fill="white"></rect>
    </clipPath>
  </defs>
</svg>
