<?xml version="1.0" encoding="UTF-8"?>
<svg xmlns="http://www.w3.org/2000/svg" width="1440" height="920" viewBox="0 0 1440 920" fill="none">
  <rect width="1440" height="920" fill="url(#paint0_radial_21_1462)" fill-opacity="0.4"></rect>
  <rect width="1440" height="920" fill="#E3E3E3" fill-opacity="0.5"></rect>
  <g opacity="0.8">
    <line x1="630.311" y1="182.689" x2="790.311" y2="342.689" stroke="white" stroke-width="0.879121"></line>
    <line y1="-0.43956" x2="226.274" y2="-0.43956" transform="matrix(-0.707107 0.707107 0.707107 0.707107 790 183)" stroke="white" stroke-width="0.879121"></line>
    <path d="M686.605 379L689.053 366.454H689.953L687.505 379H686.605ZM701.821 370C703.549 370 704.215 371.008 704.215 372.466C704.215 372.97 704.143 373.294 704.071 373.762L703.063 379H702.163L703.153 373.942C703.243 373.528 703.297 373.042 703.297 372.61C703.297 371.584 702.883 370.792 701.623 370.792C699.913 370.792 698.869 372.358 698.455 374.428L697.573 379H696.673L697.681 373.78C697.771 373.384 697.825 372.97 697.825 372.61C697.825 371.458 697.303 370.792 696.151 370.792C694.423 370.792 693.397 372.358 692.983 374.428L692.101 379H691.201L692.911 370.126H693.775L693.487 371.512C694.207 370.486 695.323 370 696.385 370C697.573 370 698.455 370.576 698.599 371.926C699.355 370.648 700.561 370 701.821 370ZM714.423 370.126H715.323L713.595 379H712.713L713.037 377.29C712.227 378.442 710.877 379.126 709.473 379.126C707.349 379.126 706.125 377.686 706.125 375.598C706.125 372.772 708.285 370 711.093 370C712.551 370 713.649 370.738 714.081 371.872L714.423 370.126ZM713.685 374.248C713.973 372.25 713.001 370.81 711.165 370.81C708.753 370.81 707.007 373.24 707.007 375.508C707.007 377.2 707.979 378.298 709.599 378.298C711.669 378.298 713.361 376.48 713.685 374.248ZM718.63 375.508C718 375.796 717.568 376.21 717.568 376.804C717.568 378.802 723.31 377.29 723.31 380.152C723.31 381.934 721.402 382.798 719.152 382.798C717.064 382.798 715.732 382.06 715.732 380.602C715.732 380.314 715.786 379.972 715.876 379.666L717.748 378.334C717.118 378.082 716.686 377.65 716.686 376.93C716.686 376.048 717.28 375.418 718.072 374.986C717.766 374.59 717.604 374.086 717.604 373.528C717.604 371.602 719.35 370 721.474 370C722.392 370 723.13 370.288 723.616 370.81L725.002 369.748L725.38 370.342L723.994 371.368C724.156 371.692 724.246 372.088 724.246 372.502C724.246 374.5 722.5 375.994 720.448 375.994C719.728 375.994 719.098 375.814 718.63 375.508ZM721.456 370.756C719.8 370.756 718.486 372.07 718.486 373.51C718.486 374.554 719.224 375.256 720.448 375.256C722.086 375.256 723.382 374.032 723.382 372.52C723.382 371.44 722.644 370.756 721.456 370.756ZM722.428 380.278C722.428 378.892 720.07 379 718.378 378.55L716.704 379.918C716.65 380.116 716.614 380.404 716.614 380.53C716.614 381.628 717.694 382.042 719.188 382.042C720.934 382.042 722.428 381.484 722.428 380.278ZM733.603 374.788H726.943C726.871 375.148 726.835 375.454 726.835 375.778C726.835 377.38 727.735 378.316 729.301 378.316C730.471 378.316 731.281 377.992 732.307 377.092L732.847 377.704C731.641 378.73 730.615 379.126 729.247 379.126C727.069 379.126 725.971 377.758 725.971 375.76C725.971 372.826 727.969 370 730.777 370C733.063 370 733.891 371.512 733.891 373.114C733.891 373.636 733.783 374.302 733.603 374.788ZM730.723 370.81C728.941 370.81 727.573 372.196 727.087 374.068H732.919C733.027 373.726 733.081 373.33 733.081 373.006C733.081 371.872 732.433 370.81 730.723 370.81Z" fill="white"></path>
  </g>
  <defs>
    <radialGradient id="paint0_radial_21_1462" cx="0" cy="0" r="1" gradientUnits="userSpaceOnUse" gradientTransform="translate(720 460) rotate(90) scale(776.385 1215.21)">
      <stop stop-opacity="0.5"></stop>
      <stop offset="1" stop-opacity="0"></stop>
    </radialGradient>
  </defs>
</svg>
