<?xml version="1.0" encoding="UTF-8"?>
<svg xmlns="http://www.w3.org/2000/svg" width="29" height="128" viewBox="0 0 29 128" fill="none">
  <g opacity="0.5" clip-path="url(#clip0_5374_15556)">
    <path d="M26.2143 27.498H2.99805V35.0973H26.2143V27.498Z" fill="#E1A462"></path>
    <path d="M21.895 19.8164H16.6195H12.589H7.3135L3.01953 27.4157H12.589H16.6195H26.1925L21.895 19.8164Z" fill="#7A3E2D"></path>
    <path d="M24.9879 57.5928H4.22168V127.999H24.9879V57.5928Z" fill="#E1A462"></path>
    <g style="mix-blend-mode:multiply">
      <path d="M7.44982 59.1465H6.30957V72.9882H7.44982V59.1465Z" fill="#E1A462"></path>
    </g>
    <g style="mix-blend-mode:multiply">
      <path d="M9.65783 59.1465H8.51758V72.9882H9.65783V59.1465Z" fill="#E1A462"></path>
    </g>
    <g style="mix-blend-mode:multiply">
      <path d="M11.8649 59.1465H10.7246V72.9882H11.8649V59.1465Z" fill="#E1A462"></path>
    </g>
    <g style="mix-blend-mode:multiply">
      <path d="M14.0709 59.1465H12.9307V72.9882H14.0709V59.1465Z" fill="#E1A462"></path>
    </g>
    <g style="mix-blend-mode:multiply">
      <path d="M16.2809 59.1465H15.1406V72.9882H16.2809V59.1465Z" fill="#E1A462"></path>
    </g>
    <g style="mix-blend-mode:multiply">
      <path d="M18.485 59.1465H17.3447V72.9882H18.485V59.1465Z" fill="#E1A462"></path>
    </g>
    <g style="mix-blend-mode:multiply">
      <path d="M20.691 59.1465H19.5508V72.9882H20.691V59.1465Z" fill="#E1A462"></path>
    </g>
    <g style="mix-blend-mode:multiply">
      <path d="M22.902 59.1465H21.7617V72.9882H22.902V59.1465Z" fill="#E1A462"></path>
    </g>
    <path d="M28.8729 31.9941H0.337891V60.107H28.8729V31.9941Z" fill="#E1A462"></path>
    <g style="mix-blend-mode:multiply">
      <path d="M26.5935 34.2432H2.62305V57.8564H26.5935V34.2432Z" fill="#E1A462"></path>
    </g>
    <path d="M25.0517 74.0547H4.15918V75.5738H25.0517V74.0547Z" fill="#C44C02"></path>
    <g style="mix-blend-mode:multiply">
      <path d="M7.44982 76.7471H6.30957V90.5888H7.44982V76.7471Z" fill="#E1A462"></path>
    </g>
    <g style="mix-blend-mode:multiply">
      <path d="M9.65783 76.7471H8.51758V90.5888H9.65783V76.7471Z" fill="#E1A462"></path>
    </g>
    <g style="mix-blend-mode:multiply">
      <path d="M11.8649 76.7471H10.7246V90.5888H11.8649V76.7471Z" fill="#E1A462"></path>
    </g>
    <g style="mix-blend-mode:multiply">
      <path d="M14.0709 76.7471H12.9307V90.5888H14.0709V76.7471Z" fill="#E1A462"></path>
    </g>
    <g style="mix-blend-mode:multiply">
      <path d="M16.2809 76.7471H15.1406V90.5888H16.2809V76.7471Z" fill="#E1A462"></path>
    </g>
    <g style="mix-blend-mode:multiply">
      <path d="M18.485 76.7471H17.3447V90.5888H18.485V76.7471Z" fill="#E1A462"></path>
    </g>
    <g style="mix-blend-mode:multiply">
      <path d="M20.691 76.7471H19.5508V90.5888H20.691V76.7471Z" fill="#E1A462"></path>
    </g>
    <g style="mix-blend-mode:multiply">
      <path d="M22.902 76.7471H21.7617V90.5888H22.902V76.7471Z" fill="#E1A462"></path>
    </g>
    <path d="M25.0517 91.6553H4.15918V93.1744H25.0517V91.6553Z" fill="#C44C02"></path>
    <g style="mix-blend-mode:multiply">
      <path d="M7.44982 94.3467H6.30957V108.188H7.44982V94.3467Z" fill="#E1A462"></path>
    </g>
    <g style="mix-blend-mode:multiply">
      <path d="M9.65783 94.3467H8.51758V108.188H9.65783V94.3467Z" fill="#E1A462"></path>
    </g>
    <g style="mix-blend-mode:multiply">
      <path d="M11.8649 94.3467H10.7246V108.188H11.8649V94.3467Z" fill="#E1A462"></path>
    </g>
    <g style="mix-blend-mode:multiply">
      <path d="M14.0709 94.3467H12.9307V108.188H14.0709V94.3467Z" fill="#E1A462"></path>
    </g>
    <g style="mix-blend-mode:multiply">
      <path d="M16.2809 94.3467H15.1406V108.188H16.2809V94.3467Z" fill="#E1A462"></path>
    </g>
    <g style="mix-blend-mode:multiply">
      <path d="M18.485 94.3467H17.3447V108.188H18.485V94.3467Z" fill="#E1A462"></path>
    </g>
    <g style="mix-blend-mode:multiply">
      <path d="M20.691 94.3467H19.5508V108.188H20.691V94.3467Z" fill="#E1A462"></path>
    </g>
    <g style="mix-blend-mode:multiply">
      <path d="M22.902 94.3467H21.7617V108.188H22.902V94.3467Z" fill="#E1A462"></path>
    </g>
    <path d="M25.0517 109.256H4.15918V110.775H25.0517V109.256Z" fill="#C44C02"></path>
    <g style="mix-blend-mode:multiply">
      <path d="M7.44982 111.949H6.30957V125.791H7.44982V111.949Z" fill="#E1A462"></path>
    </g>
    <g style="mix-blend-mode:multiply">
      <path d="M9.65783 111.949H8.51758V125.791H9.65783V111.949Z" fill="#E1A462"></path>
    </g>
    <g style="mix-blend-mode:multiply">
      <path d="M11.8649 111.949H10.7246V125.791H11.8649V111.949Z" fill="#E1A462"></path>
    </g>
    <g style="mix-blend-mode:multiply">
      <path d="M14.0709 111.949H12.9307V125.791H14.0709V111.949Z" fill="#E1A462"></path>
    </g>
    <g style="mix-blend-mode:multiply">
      <path d="M16.2809 111.949H15.1406V125.791H16.2809V111.949Z" fill="#E1A462"></path>
    </g>
    <g style="mix-blend-mode:multiply">
      <path d="M18.485 111.949H17.3447V125.791H18.485V111.949Z" fill="#E1A462"></path>
    </g>
    <g style="mix-blend-mode:multiply">
      <path d="M20.691 111.949H19.5508V125.791H20.691V111.949Z" fill="#E1A462"></path>
    </g>
    <g style="mix-blend-mode:multiply">
      <path d="M22.902 111.949H21.7617V125.791H22.902V111.949Z" fill="#E1A462"></path>
    </g>
    <path d="M4.45308 35.6875C4.45308 36.0122 4.18967 36.2793 3.86131 36.2793C3.53294 36.2793 3.26953 36.0158 3.26953 35.6875C3.26953 35.3591 3.53294 35.0957 3.86131 35.0957C4.18967 35.0957 4.45308 35.3591 4.45308 35.6875Z" fill="#E1A462"></path>
    <path d="M25.5595 35.6875C25.5595 36.0122 25.2961 36.2793 24.9678 36.2793C24.6394 36.2793 24.376 36.0158 24.376 35.6875C24.376 35.3591 24.6394 35.0957 24.9678 35.0957C25.2961 35.0957 25.5595 35.3591 25.5595 35.6875Z" fill="#E1A462"></path>
    <path d="M4.45308 56.3691C4.45308 56.6939 4.18967 56.9609 3.86131 56.9609C3.53294 56.9609 3.26953 56.6975 3.26953 56.3691C3.26953 56.0408 3.53294 55.7773 3.86131 55.7773C4.18967 55.7773 4.45308 56.0408 4.45308 56.3691Z" fill="#E1A462"></path>
    <path d="M25.5595 56.3691C25.5595 56.6939 25.2961 56.9609 24.9678 56.9609C24.6394 56.9609 24.376 56.6975 24.376 56.3691C24.376 56.0408 24.6394 55.7773 24.9678 55.7773C25.2961 55.7773 25.5595 56.0408 25.5595 56.3691Z" fill="#E1A462"></path>
    <path d="M25.5979 46.0484C25.5979 52.1213 20.676 57.0432 14.6031 57.0432C8.53023 57.0432 3.6084 52.1213 3.6084 46.0484C3.6084 39.9755 8.53023 35.0537 14.6031 35.0537C20.676 35.0537 25.5979 39.9755 25.5979 46.0484Z" fill="#FBFDBE"></path>
    <path d="M15.3591 46.0492C15.3591 46.4713 15.0163 46.8141 14.5941 46.8141C14.1719 46.8141 13.8291 46.4713 13.8291 46.0492C13.8291 45.627 14.1719 45.2842 14.5941 45.2842C15.0163 45.2842 15.3591 45.627 15.3591 46.0492Z" fill="#C34C34"></path>
    <path d="M14.5898 37.5845V35.1777" stroke="#E1A462" stroke-width="0.360838" stroke-miterlimit="10"></path>
    <path d="M12.383 37.8804L11.7588 35.5566" stroke="#E1A462" stroke-width="0.360838" stroke-miterlimit="10"></path>
    <path d="M10.3285 38.7314L9.12695 36.6494" stroke="#E1A462" stroke-width="0.360838" stroke-miterlimit="10"></path>
    <path d="M8.56185 40.0928L6.8623 38.3896" stroke="#E1A462" stroke-width="0.360838" stroke-miterlimit="10"></path>
    <path d="M7.21455 41.8614L5.12891 40.6562" stroke="#E1A462" stroke-width="0.360838" stroke-miterlimit="10"></path>
    <path d="M6.36091 43.9172L4.03711 43.293" stroke="#E1A462" stroke-width="0.360838" stroke-miterlimit="10"></path>
    <path d="M6.07769 46.125H3.6709" stroke="#E1A462" stroke-width="0.360838" stroke-miterlimit="10"></path>
    <path d="M6.36969 48.3311L4.0459 48.9553" stroke="#E1A462" stroke-width="0.360838" stroke-miterlimit="10"></path>
    <path d="M7.22364 50.3857L5.1416 51.5873" stroke="#E1A462" stroke-width="0.360838" stroke-miterlimit="10"></path>
    <path d="M8.58334 52.1514L6.88379 53.8509" stroke="#E1A462" stroke-width="0.360838" stroke-miterlimit="10"></path>
    <path d="M10.35 53.501L9.14844 55.5866" stroke="#E1A462" stroke-width="0.360838" stroke-miterlimit="10"></path>
    <path d="M12.4094 54.3525L11.7852 56.6763" stroke="#E1A462" stroke-width="0.360838" stroke-miterlimit="10"></path>
    <path d="M14.6143 54.6367V57.0435" stroke="#E1A462" stroke-width="0.360838" stroke-miterlimit="10"></path>
    <path d="M16.8232 54.3467L17.4439 56.6705" stroke="#E1A462" stroke-width="0.360838" stroke-miterlimit="10"></path>
    <path d="M18.877 53.4902L20.0822 55.5723" stroke="#E1A462" stroke-width="0.360838" stroke-miterlimit="10"></path>
    <path d="M20.6396 52.1338L22.3428 53.8333" stroke="#E1A462" stroke-width="0.360838" stroke-miterlimit="10"></path>
    <path d="M21.9941 50.3652L24.0762 51.5668" stroke="#E1A462" stroke-width="0.360838" stroke-miterlimit="10"></path>
    <path d="M22.8418 48.3057L25.1656 48.9299" stroke="#E1A462" stroke-width="0.360838" stroke-miterlimit="10"></path>
    <path d="M23.1338 46.0996H25.5406" stroke="#E1A462" stroke-width="0.360838" stroke-miterlimit="10"></path>
    <path d="M22.833 43.8921L25.1568 43.2715" stroke="#E1A462" stroke-width="0.360838" stroke-miterlimit="10"></path>
    <path d="M21.9834 41.839L24.0654 40.6338" stroke="#E1A462" stroke-width="0.360838" stroke-miterlimit="10"></path>
    <path d="M20.623 40.0742L22.3262 38.3711" stroke="#E1A462" stroke-width="0.360838" stroke-miterlimit="10"></path>
    <path d="M18.8564 38.7217L20.0616 36.6396" stroke="#E1A462" stroke-width="0.360838" stroke-miterlimit="10"></path>
    <path d="M16.7979 37.8726L17.4221 35.5488" stroke="#E1A462" stroke-width="0.360838" stroke-miterlimit="10"></path>
    <path d="M13.3864 37.6706L13.0508 35.2891" stroke="#E1A462" stroke-width="0.360838" stroke-miterlimit="10"></path>
    <path d="M11.2481 38.2754L10.3027 36.0635" stroke="#E1A462" stroke-width="0.360838" stroke-miterlimit="10"></path>
    <path d="M9.32972 39.411L7.84668 37.5166" stroke="#E1A462" stroke-width="0.360838" stroke-miterlimit="10"></path>
    <path d="M7.77678 41.0019L5.85352 39.5586" stroke="#E1A462" stroke-width="0.360838" stroke-miterlimit="10"></path>
    <path d="M6.68701 42.9434L4.45703 42.0449" stroke="#E1A462" stroke-width="0.360838" stroke-miterlimit="10"></path>
    <path d="M6.13777 45.1009L3.74902 44.8086" stroke="#E1A462" stroke-width="0.360838" stroke-miterlimit="10"></path>
    <path d="M6.16376 47.3252L3.78223 47.6644" stroke="#E1A462" stroke-width="0.360838" stroke-miterlimit="10"></path>
    <path d="M6.76633 49.4668L4.55078 50.4122" stroke="#E1A462" stroke-width="0.360838" stroke-miterlimit="10"></path>
    <path d="M7.90056 51.3838L6.00977 52.8668" stroke="#E1A462" stroke-width="0.360838" stroke-miterlimit="10"></path>
    <path d="M9.49383 52.9395L8.04688 54.8627" stroke="#E1A462" stroke-width="0.360838" stroke-miterlimit="10"></path>
    <path d="M11.4346 54.0273L10.5361 56.2609" stroke="#E1A462" stroke-width="0.360838" stroke-miterlimit="10"></path>
    <path d="M13.5895 54.5811L13.3008 56.9662" stroke="#E1A462" stroke-width="0.360838" stroke-miterlimit="10"></path>
    <path d="M15.8135 54.5518L16.1527 56.9333" stroke="#E1A462" stroke-width="0.360838" stroke-miterlimit="10"></path>
    <path d="M17.9619 53.9492L18.9073 56.1648" stroke="#E1A462" stroke-width="0.360838" stroke-miterlimit="10"></path>
    <path d="M19.874 52.8154L21.3571 54.7062" stroke="#E1A462" stroke-width="0.360838" stroke-miterlimit="10"></path>
    <path d="M21.4307 51.2217L23.3539 52.6686" stroke="#E1A462" stroke-width="0.360838" stroke-miterlimit="10"></path>
    <path d="M22.5195 49.2793L24.7495 50.1778" stroke="#E1A462" stroke-width="0.360838" stroke-miterlimit="10"></path>
    <path d="M23.0674 47.127L25.4561 47.4156" stroke="#E1A462" stroke-width="0.360838" stroke-miterlimit="10"></path>
    <path d="M23.043 44.8997L25.4245 44.5605" stroke="#E1A462" stroke-width="0.360838" stroke-miterlimit="10"></path>
    <path d="M22.4385 42.7559L24.6504 41.8105" stroke="#E1A462" stroke-width="0.360838" stroke-miterlimit="10"></path>
    <path d="M21.3057 40.8395L23.2001 39.3564" stroke="#E1A462" stroke-width="0.360838" stroke-miterlimit="10"></path>
    <path d="M19.7119 39.2856L21.1553 37.3623" stroke="#E1A462" stroke-width="0.360838" stroke-miterlimit="10"></path>
    <path d="M17.7695 38.1938L18.668 35.9639" stroke="#E1A462" stroke-width="0.360838" stroke-miterlimit="10"></path>
    <path d="M15.6113 37.6466L15.9036 35.2578" stroke="#E1A462" stroke-width="0.360838" stroke-miterlimit="10"></path>
    <path d="M25.5979 46.0484C25.5979 52.1213 20.676 57.0432 14.6031 57.0432C8.53023 57.0432 3.6084 52.1213 3.6084 46.0484C3.6084 39.9755 8.53023 35.0537 14.6031 35.0537C20.676 35.0537 25.5979 39.9755 25.5979 46.0484Z" stroke="#7A3E2D" stroke-width="0.721676" stroke-miterlimit="10"></path>
    <path d="M18.7392 46.0483C18.7392 48.3324 16.8881 50.1835 14.604 50.1835C12.3198 50.1835 10.4688 48.3324 10.4688 46.0483C10.4688 43.7642 12.3198 41.9131 14.604 41.9131C16.8881 41.9131 18.7392 43.7642 18.7392 46.0483Z" stroke="#7A3E2D" stroke-width="0.721676" stroke-miterlimit="10"></path>
    <path d="M23.1925 46.0479C23.1925 50.7893 19.3496 54.6358 14.6045 54.6358C9.85952 54.6358 6.0166 50.7893 6.0166 46.0479C6.0166 41.3065 9.86313 37.46 14.6045 37.46C19.3459 37.46 23.1925 41.3029 23.1925 46.0479Z" stroke="#7A3E2D" stroke-width="0.721676" stroke-miterlimit="10"></path>
    <path d="M14.6025 41.8371V37.6045" stroke="#7A3E2D" stroke-width="0.721676" stroke-miterlimit="10"></path>
    <path d="M12.4788 42.378L10.3643 38.7119" stroke="#7A3E2D" stroke-width="0.721676" stroke-miterlimit="10"></path>
    <path d="M10.9122 43.9085L7.24609 41.7939" stroke="#7A3E2D" stroke-width="0.721676" stroke-miterlimit="10"></path>
    <path d="M10.3156 46.0205H6.08301" stroke="#7A3E2D" stroke-width="0.721676" stroke-miterlimit="10"></path>
    <path d="M10.8575 48.1416L7.19141 50.2597" stroke="#7A3E2D" stroke-width="0.721676" stroke-miterlimit="10"></path>
    <path d="M12.385 49.71L10.2705 53.3761" stroke="#7A3E2D" stroke-width="0.721676" stroke-miterlimit="10"></path>
    <path d="M14.4961 50.3027V54.5354" stroke="#7A3E2D" stroke-width="0.721676" stroke-miterlimit="10"></path>
    <path d="M16.6211 49.7607L18.7392 53.4269" stroke="#7A3E2D" stroke-width="0.721676" stroke-miterlimit="10"></path>
    <path d="M18.1914 48.2314L21.8575 50.3496" stroke="#7A3E2D" stroke-width="0.721676" stroke-miterlimit="10"></path>
    <path d="M18.7812 46.1211L23.0139 46.1247" stroke="#7A3E2D" stroke-width="0.721676" stroke-miterlimit="10"></path>
    <path d="M18.2422 43.9993L21.9083 41.8848" stroke="#7A3E2D" stroke-width="0.721676" stroke-miterlimit="10"></path>
    <path d="M16.7109 42.4301L18.8291 38.7676" stroke="#7A3E2D" stroke-width="0.721676" stroke-miterlimit="10"></path>
    <path d="M14.7147 46.3113C14.9384 46.2247 14.9962 45.8278 14.841 45.4272C14.6859 45.0231 11.6476 38.2069 11.6476 38.2069C11.4708 37.8099 11.4347 37.8244 11.5718 38.2357C11.5718 38.2357 13.874 45.3334 14.0291 45.7375C14.1843 46.1417 14.491 46.3979 14.7147 46.3113Z" fill="#282828"></path>
    <path d="M14.3984 45.8785C14.4237 46.0481 14.6871 46.1527 14.9938 46.1094C15.3005 46.0661 20.5326 45.0485 20.5326 45.0485C20.8357 44.9908 20.8321 44.962 20.5254 44.9908C20.5254 44.9908 15.2139 45.4527 14.9072 45.496C14.6005 45.5393 14.3731 45.7125 14.3984 45.8821V45.8785Z" fill="#282828"></path>
    <g style="mix-blend-mode:multiply">
      <path d="M6.72775 28.2119H5.08594V31.4414H6.72775V28.2119Z" fill="#7A3E2D"></path>
    </g>
    <g style="mix-blend-mode:multiply">
      <path d="M9.62814 28.2119H7.98633V31.4414H9.62814V28.2119Z" fill="#7A3E2D"></path>
    </g>
    <g style="mix-blend-mode:multiply">
      <path d="M12.5256 28.2119H10.8838V31.4414H12.5256V28.2119Z" fill="#7A3E2D"></path>
    </g>
    <g style="mix-blend-mode:multiply">
      <path d="M15.424 28.2119H13.7822V31.4414H15.424V28.2119Z" fill="#7A3E2D"></path>
    </g>
    <g style="mix-blend-mode:multiply">
      <path d="M18.3215 28.2119H16.6797V31.4414H18.3215V28.2119Z" fill="#7A3E2D"></path>
    </g>
    <g style="mix-blend-mode:multiply">
      <path d="M21.2219 28.2119H19.5801V31.4414H21.2219V28.2119Z" fill="#7A3E2D"></path>
    </g>
    <g style="mix-blend-mode:multiply">
      <path d="M24.1194 28.2119H22.4775V31.4414H24.1194V28.2119Z" fill="#7A3E2D"></path>
    </g>
    <path d="M21.841 16.5107H7.375V19.8052H21.841V16.5107Z" fill="#E1A462"></path>
    <g style="mix-blend-mode:multiply">
      <path d="M9.69568 16.9541H8.6709V18.9676H9.69568V16.9541Z" fill="#7A3E2D"></path>
    </g>
    <g style="mix-blend-mode:multiply">
      <path d="M11.5043 16.9541H10.4795V18.9676H11.5043V16.9541Z" fill="#7A3E2D"></path>
    </g>
    <g style="mix-blend-mode:multiply">
      <path d="M13.308 16.9541H12.2832V18.9676H13.308V16.9541Z" fill="#7A3E2D"></path>
    </g>
    <g style="mix-blend-mode:multiply">
      <path d="M15.1146 16.9541H14.0898V18.9676H15.1146V16.9541Z" fill="#7A3E2D"></path>
    </g>
    <g style="mix-blend-mode:multiply">
      <path d="M16.9183 16.9541H15.8936V18.9676H16.9183V16.9541Z" fill="#7A3E2D"></path>
    </g>
    <g style="mix-blend-mode:multiply">
      <path d="M18.7289 16.9541H17.7041V18.9676H18.7289V16.9541Z" fill="#7A3E2D"></path>
    </g>
    <g style="mix-blend-mode:multiply">
      <path d="M20.5355 16.9541H19.5107V18.9676H20.5355V16.9541Z" fill="#7A3E2D"></path>
    </g>
    <path d="M14.6063 1.17969L7.40039 16.5333H21.8123L14.6063 1.17969Z" fill="#7A3E2D"></path>
    <path d="M15.6581 1.05267C15.6581 1.63362 15.1854 2.10632 14.6044 2.10632C14.0235 2.10632 13.5508 1.63362 13.5508 1.05267C13.5508 0.471721 14.0235 -0.000976562 14.6044 -0.000976562C15.1854 -0.000976562 15.6581 0.471721 15.6581 1.05267Z" fill="#E1A462"></path>
    <rect x="0.000976562" width="29" height="128" fill="black" style="mix-blend-mode:saturation"></rect>
  </g>
  <defs>
    <clipPath id="clip0_5374_15556">
      <rect width="28.5351" height="128" fill="white" transform="translate(0.336914)"></rect>
    </clipPath>
  </defs>
</svg>
