<?xml version="1.0" encoding="UTF-8"?>
<svg xmlns="http://www.w3.org/2000/svg" width="31" height="37" viewBox="0 0 31 37" fill="none">
  <path d="M25.405 0.628906C24.732 0.628906 24.1057 0.962229 23.7294 1.5198L16.8241 11.7615C16.3633 12.4445 16.3633 13.3287 16.8241 14.0117L19.3757 17.7955L30.9501 0.628906H25.405Z" fill="white"></path>
  <path d="M12.1706 18.6743L0 36.7153H5.54561C6.21856 36.7153 6.84491 36.3824 7.2212 35.8254L18.7808 18.6741L7.22336 1.52745C6.84806 0.969881 6.22259 0.637539 5.55062 0.636558L0.00500972 0.628906L12.1706 18.6743Z" fill="#3EBDAB"></path>
  <path d="M25.405 36.7174C24.732 36.7174 24.1057 36.3841 23.7294 35.8265L16.8241 25.5848C16.3633 24.9018 16.3633 24.0176 16.8241 23.3347L19.3757 19.5508L30.9501 36.7174H25.405Z" fill="white"></path>
</svg>
